<?xml version="1.0" encoding="utf-8"?>
<!-- Generator: Adobe Illustrator 15.0.0, SVG Export Plug-In . SVG Version: 6.00 Build 0)  -->
<!DOCTYPE svg PUBLIC "-//W3C//DTD SVG 1.1//EN" "http://www.w3.org/Graphics/SVG/1.1/DTD/svg11.dtd">
<svg version="1.1" id="Layer_1" xmlns="http://www.w3.org/2000/svg" xmlns:xlink="http://www.w3.org/1999/xlink" x="0px" y="0px"
	 width="177px" height="289px" viewBox="0 0 177 289" enable-background="new 0 0 177 289" xml:space="preserve">
<g>
	<polygon fill="#FFFFFF" points="78.859,36.73 74.864,52.885 88.586,44.895 102.134,52.885 98.484,36.73 110.123,25.964 
		93.796,25.964 88.586,9.638 83.548,25.964 66.877,25.964 	"/>
	<path fill="#FFFFFF" d="M165.354,76.852v148.842c0,8.511-4.344,15.459-11.985,19.628c-20.841,11.462-41.335-2.953-64.782,25.877
		c-23.447-28.656-44.115-14.415-65.131-25.877c-7.641-4.169-11.982-10.943-11.982-19.628V76.852H165.354 M170.563,71.814H6.437
		v154.057c0,5.209,1.389,9.898,3.819,14.065c2.605,3.993,6.08,7.467,10.769,9.9c8.857,4.864,17.369,5.559,25.531,6.252
		c6.427,0.521,12.505,1.042,18.757,3.474c6.947,2.779,13.026,7.467,19.105,14.937l3.995,4.863l3.994-4.863
		c6.077-7.47,12.156-12.157,19.104-14.937c6.079-2.432,12.158-2.953,18.758-3.474c8.337-0.693,16.847-1.388,25.53-6.252
		c4.516-2.434,8.163-5.907,10.768-9.9c2.606-4.167,3.821-8.856,3.821-14.065L170.563,71.814L170.563,71.814z"/>
	<path fill="#FFFFFF" d="M112.729,112.804L112.729,112.804L112.729,112.804z"/>
	<g>
		<path fill="#FFFFFF" d="M33.703,243.758c4.517,1.216,9.205,1.563,14.069,2.084c2.604,0.174,5.21,0.521,7.989,0.867V124.961H33.703
			V243.758z M121.41,124.961v121.748c2.781-0.346,5.386-0.52,7.99-0.867c4.863-0.347,9.552-0.868,14.068-2.084V124.961H121.41z
			 M77.646,254.178c3.646,2.258,7.295,5.211,10.94,9.206c3.647-3.821,7.295-6.948,10.939-9.206V124.961h-21.88V254.178z"/>
		<path fill="#FFFFFF" d="M38.914,110.72h12.853v4.689H33.703V89.007h18.063v4.691H38.914v6.08h11.809v4.688H38.914V110.72
			L38.914,110.72z"/>
		<path fill="#FFFFFF" d="M101.09,89.007h5.211v21.713h11.812v4.514H101.09V89.007z"/>
		<path fill="#FFFFFF" d="M125.753,89.007h9.726c6.081,0,9.379,1.22,9.727,7.471c0,0.348,0,2.257,0,2.779
			c0,5.73-3.646,7.988-8.336,7.988h-5.905v8.164h-5.037L125.753,89.007L125.753,89.007z M130.964,102.731h4.169
			c3.646,0,4.862-1.042,5.036-3.65c0-0.347,0-1.908,0-2.082c0-3.127-1.736-3.647-5.21-3.647h-3.821v9.38H130.964z"/>
		<g>
			<path fill="#FFFFFF" d="M93.623,107.419v-4.167c0-4.865-2.258-7.643-7.468-7.643c-5.038,0-7.47,2.953-7.644,7.99v5.383
				c0,3.995,2.605,6.774,7.818,6.774c2.951,0,4.861-0.868,6.945-2.085l-1.391-3.126c-1.908,1.042-2.951,1.563-5.209,1.563
				c-2.606,0-3.474-1.39-3.474-2.953v-1.563L93.623,107.419L93.623,107.419z M86.155,99.257c2.604,0,3.126,1.737,3.126,4.862h-6.428
				C82.854,100.646,83.548,99.257,86.155,99.257z"/>
			<path fill="#FFFFFF" d="M75.038,115.233V88.835h-4.341v8.338c-1.043-1.042-2.779-1.39-4.689-1.39
				c-4.343,0-6.427,2.951-6.427,7.643v4.341c0,4.863,2.258,7.643,6.601,7.643c1.91,0,3.473-0.694,4.516-1.737c0,0.174,0,1.39,0,1.39
				L75.038,115.233L75.038,115.233z M67.224,111.414c-2.258,0-3.302-1.39-3.302-4.169v-2.95c0-2.779,1.044-4.169,3.302-4.169
				c1.39,0,2.431,0.694,3.474,1.734v7.99C69.654,110.72,68.613,111.414,67.224,111.414z"/>
		</g>
	</g>
</g>
</svg>
