<?xml version="1.0" encoding="utf-8"?>
<!-- Generator: Adobe Illustrator 15.0.0, SVG Export Plug-In . SVG Version: 6.00 Build 0)  -->
<!DOCTYPE svg PUBLIC "-//W3C//DTD SVG 1.1//EN" "http://www.w3.org/Graphics/SVG/1.1/DTD/svg11.dtd">
<svg version="1.1" id="Layer_1" xmlns="http://www.w3.org/2000/svg" xmlns:xlink="http://www.w3.org/1999/xlink" x="0px" y="0px"
	 width="402px" height="118px" viewBox="0 0 402 118" enable-background="new 0 0 402 118" xml:space="preserve">
<g>
	<g>
		<path fill="#FFFFFF" d="M48.582,54.716c9.208,0,16.511-2.226,22.227-5.717c5.719-3.811,8.574-9.209,8.574-15.877
			c0-6.352-2.855-11.434-8.574-14.925c-5.395-3.175-12.7-5.08-22.544-5.08c-0.635,0-1.27,0-1.904,0h-3.493h-9.844H11.114v2.541
			h0.951c3.177,0,5.08,0.635,5.398,0.951c0.633,0.635,0.954,1.906,0.954,4.444v25.404c0,2.541-0.321,3.811-0.954,4.445
			c-0.634,0.952-2.539,1.271-5.398,1.271h-0.951v2.542h36.516H48.582z M34.292,51.221c-1.269-0.636-1.586-1.903-1.586-4.444V15.975
			h5.081c4.129,0,7.62,0.318,10.795,0.635c4.129,0.635,7.623,1.588,9.843,3.176c4.128,2.856,6.033,7.304,6.033,13.337
			c0,6.35-1.905,11.113-5.396,13.971c-2.54,2.225-6.033,3.492-10.479,4.444c-1.905,0.318-4.126,0.318-6.033,0.318
			C38.103,51.855,35.247,51.855,34.292,51.221z"/>
		<path fill="#FFFFFF" d="M111.456,52.174H110.5c-0.952,0-1.586,0-1.904,0c-1.904,0-2.855-0.318-2.855-0.953
			c0-0.952,0.951-2.222,2.54-4.444l3.492-4.445h14.288h14.289l3.492,4.445c1.906,2.541,2.541,3.809,2.541,4.444
			c0,0.635-1.903,0.953-6.033,1.27h-0.951v2.542h28.259V52.49h-0.636c-2.539,0-4.125-0.316-4.761-0.635
			c-0.637-0.318-1.907-1.905-4.13-4.763L132.73,13.434h-4.764l-2.223,2.859l-23.18,30.8c-2.226,2.857-3.493,4.444-4.128,4.763
			c-0.637,0.318-2.226,0.635-4.443,0.635h-0.955v2.542h18.098v-2.858H111.456z M125.744,23.276L125.744,23.276l12.067,15.879
			h-12.067h-12.068L125.744,23.276z"/>
		<path fill="#FFFFFF" d="M190.839,49.95c6.35,3.813,15.241,5.717,26.672,5.717c7.938,0,15.559-0.951,22.545-2.542v-4.128
			c-7.303,2.224-13.971,3.177-19.369,3.177c-8.258,0-14.289-1.589-18.418-4.763c-4.127-3.176-6.035-7.621-6.035-13.973
			c0-6.033,1.907-10.797,5.4-13.97c3.808-3.176,8.888-5.08,15.558-5.08c5.717,0,9.844,0.633,13.02,2.221
			c1.27,0.635,1.906,2.223,1.906,4.763v0.638h6.668v-7.941c-7.621-1.268-14.926-1.904-21.91-1.904
			c-11.434,0-20.321,1.904-26.356,5.715c-6.351,3.81-9.208,9.21-9.208,16.196C180.994,40.743,184.17,46.139,190.839,49.95z"/>
		<path fill="#FFFFFF" d="M272.129,52.174h-0.955c-0.953,0-1.586,0-1.904,0c-1.904,0-2.857-0.318-2.857-0.953
			c0-0.952,0.953-2.224,2.541-4.444l3.492-4.445h14.289h14.289l3.492,4.445c1.906,2.541,2.539,3.809,2.539,4.444
			c0,0.635-1.902,0.953-5.713,1.27h-0.953v2.542h28.262V52.49h-0.637c-2.541,0-4.127-0.316-4.762-0.635s-1.906-1.905-4.129-4.763
			l-25.404-33.659h-4.443l-2.541,2.225l-23.18,30.8c-2.223,2.859-3.496,4.444-4.129,4.763c-0.633,0.316-2.221,0.635-4.447,0.635
			h-0.951v2.539h18.102V52.174L272.129,52.174z M286.734,23.276L286.734,23.276l12.385,15.879h-12.385H274.67L286.734,23.276z"/>
		<path fill="#FFFFFF" d="M392.475,45.188h-6.67v0.635c0,3.174,0,5.078-0.316,5.397c-0.318,0.316-0.951,0.635-1.906,0.635
			c-1.904,0-4.129,0.318-6.668,0.318h-5.715c-3.813,0-6.352,0-7.303-0.318c-1.273-0.318-1.906-1.905-1.906-5.079V21.372
			c0-2.54,0.318-4.128,0.953-4.444c0.635-0.635,2.541-0.953,5.715-0.953h0.955v-2.857h-28.578v2.541h0.951
			c3.174,0,5.082,0.316,5.396,0.951c0.635,0.635,0.951,1.906,0.951,4.444v25.404c0,2.539-0.316,4.127-0.951,4.443
			c-0.635,0.636-2.539,0.954-5.396,0.954h-0.951v2.539h52.074v-9.206H392.475z"/>
		<path fill="#FFFFFF" d="M26.353,97.267c-1.268-0.955-2.855-1.592-5.079-1.906c1.906-0.637,3.491-1.273,4.445-1.906
			c0.952-0.955,1.271-1.908,1.271-2.859c0-1.27-0.638-2.541-1.59-3.178c-1.27-0.633-2.855-0.951-5.081-0.951h-0.635H8.891v1.273
			h0.317c0.952,0,1.905,0.314,1.905,0.314c0.316,0.318,0.316,0.953,0.316,1.904v11.749c0,1.274,0,1.909-0.316,1.909
			c-0.316,0.316-0.953,0.316-1.905,0.316H8.891v1.271h10.794h0.635c2.542,0,4.766-0.32,6.033-1.271
			c1.274-0.951,1.907-1.906,1.907-3.49C28.26,99.166,27.627,98.216,26.353,97.267z M16.512,87.417h0.951
			c0.954,0,1.589,0,2.222,0.322c0.635,0,0.953,0.314,1.272,0.633c0.951,0.635,1.268,1.586,1.268,2.541
			c0,1.27-0.316,2.22-1.268,2.857c-0.319,0.316-0.638,0.316-1.272,0.637c-0.633,0.316-1.589,0.316-2.222,0.316h-0.951V87.417z
			 M21.909,102.981c-0.635,0.314-1.271,0.635-2.224,0.951c-0.316,0-0.633,0-0.953,0c-0.952,0-1.587,0-1.902-0.316
			c-0.317-0.32-0.317-0.953-0.317-1.909v-5.396h0.951c0.954,0,1.589,0,2.222,0.316c0.635,0.32,1.272,0.32,1.907,0.955
			c0.953,0.633,1.588,1.583,1.588,2.859C23.18,101.392,22.545,102.345,21.909,102.981z"/>
		<path fill="#FFFFFF" d="M41.916,87.417h0.316c1.27,0,1.904,0.322,1.904,0.322c0.319,0.314,0.319,0.951,0.319,1.902v11.75
			c0,1.271,0,1.904-0.319,1.904c-0.316,0.32-0.953,0.32-1.904,0.32h-0.316v1.267h10.161v-1.267h-0.318
			c-1.27,0-1.906-0.32-1.906-0.32c-0.316-0.314-0.316-0.951-0.316-1.904V89.958c0-1.268,0-1.904,0.316-1.904
			c0.318-0.314,0.951-0.314,1.906-0.314h0.318v-1.273H41.916V87.417z"/>
		<path fill="#FFFFFF" d="M81.288,102.026c0,0.955-0.318,1.59-0.318,1.906c-0.314,0-0.951,0.316-2.54,0.316h-1.902
			c-1.272,0-2.226,0-2.54,0c-0.318,0-0.637-0.953-0.637-2.223v-5.715h3.491c0.954,0,1.906,0,2.226,0
			c0.315,0,0.315,0.316,0.315,1.271V97.9h1.587v-4.768h-1.587v0.321c0,0.633,0,1.27-0.315,1.27c-0.319,0-0.952,0-2.226,0h-3.173
			v-7.307h5.079c0.955,0,1.588,0,1.907,0.322c0.314,0,0.314,0.314,0.314,0.951c0,0,0,0.316,0,0.635v0.316h2.541v-3.49H66.046v1.266
			h0.319c0.952,0,1.903,0.322,1.903,0.322c0.318,0.314,0.318,0.951,0.318,1.902v11.75c0,1.271,0,1.904-0.318,1.904
			c-0.315,0.32-0.951,0.32-1.903,0.32h-0.319v1.267h18.416v-3.491L81.288,102.026L81.288,102.026z"/>
		<path fill="#FFFFFF" d="M113.995,87.416L113.995,87.416c1.27,0,2.223,0.323,2.223,0.323c0.316,0.314,0.316,0.951,0.316,1.902
			v10.801l-13.335-14.609h-6.032v1.268h0.317c0.952,0,1.903,0.316,1.903,0.316c0.318,0.322,0.318,0.955,0.318,1.908v11.75
			c0,1.27,0,1.906-0.318,1.906c-0.316,0.314-0.951,0.314-1.903,0.314h-0.317v1.271h7.621v-1.271h-0.319
			c-0.951,0-1.904-0.314-1.904-0.314c-0.317-0.318-0.317-0.955-0.317-1.906v-10.48l13.334,14.608h3.176V89.325
			c0-1.271,0-1.909,0.32-1.909c0.316-0.315,0.951-0.315,1.904-0.315h0.316v-1.268h-7.622v1.583H113.995z"/>
		<path fill="#FFFFFF" d="M151.148,102.026c0,0.955-0.321,1.59-0.321,1.906c-0.313,0-0.95,0.316-2.54,0.316h-1.903
			c-1.27,0-2.223,0-2.541,0c-0.316,0-0.635-0.953-0.635-2.223v-5.715h3.494c0.951,0,1.905,0,2.222,0
			c0.318,0,0.318,0.316,0.318,1.271V97.9h1.585v-4.768h-1.585v0.321c0,0.633,0,1.27-0.318,1.27c-0.316,0-0.952,0-2.222,0h-3.176
			v-7.308h5.081c0.953,0,1.585,0,1.906,0.323c0.313,0,0.313,0.314,0.313,0.951c0,0,0,0.316,0,0.635v0.316h2.541v-3.49h-17.464v1.265
			h0.318c0.953,0,1.905,0.323,1.905,0.323c0.317,0.314,0.317,0.951,0.317,1.902v11.75c0,1.271,0,1.904-0.317,1.904
			c-0.316,0.32-0.952,0.32-1.905,0.32h-0.318v1.267h18.417v-3.491L151.148,102.026L151.148,102.026z"/>
		<path fill="#FFFFFF" d="M177.501,94.087l-1.587-0.633c-1.27-0.635-2.224-1.271-2.542-1.588c-0.637-0.32-0.637-0.953-0.637-1.588
			c0-0.953,0.32-1.588,0.955-2.225c0.635-0.638,1.589-0.953,2.54-0.953c1.271,0,2.222,0.315,3.174,0.953
			c0.32,0.318,0.639,0.953,0.639,2.225v0.316h2.539v-3.811c-2.539-0.633-4.445-0.951-6.352-0.951c-2.54,0-4.446,0.633-5.713,1.583
			c-1.589,0.956-2.225,2.226-2.225,3.815c0,2.223,1.904,4.129,6.032,5.717l1.589,0.635c1.271,0.633,2.223,1.267,2.538,1.583
			c0.319,0.637,0.637,1.276,0.637,1.909c0,0.951-0.317,1.906-1.27,2.541c-0.635,0.633-1.905,0.95-3.175,0.95
			c-1.272,0-2.542-0.317-3.494-0.95c-0.633-0.32-0.633-0.953-0.953-2.225v-0.316h-2.54v4.128c2.54,0.316,4.763,0.633,6.668,0.633
			c2.859,0,5.079-0.633,6.668-1.587c1.589-0.953,2.541-2.542,2.541-4.128c0-1.271-0.316-2.221-1.268-3.173
			C181.631,95.995,180.043,95.042,177.501,94.087z"/>
		<path fill="#FFFFFF" d="M231.482,103.932c-0.316-0.316-0.953-0.95-2.221-2.225l-4.449-5.396c1.59-0.637,2.861-1.27,3.496-2.225
			c0.633-0.954,1.27-1.904,1.27-3.492c0-3.179-2.541-4.762-7.305-4.762h-0.951h-0.635h-2.859h-7.305v1.268h0.32
			c1.268,0,1.904,0.315,1.904,0.315c0.316,0.323,0.316,0.956,0.316,1.909v11.75c0,1.27,0,1.906-0.316,2.221
			c-0.318,0.319-0.953,0.319-1.904,0.319h-0.32v1.268h9.529v-1.268h-0.318c-0.953,0-1.27-0.319-1.588-0.319
			c-0.318-0.314-0.318-0.951-0.318-2.221v-4.764h2.225l1.27,1.589l5.396,6.982h7.305v-1.268h-0.316
			C232.436,103.932,231.803,103.932,231.482,103.932z M222.91,94.405c-0.637,0.318-0.953,0.637-1.588,0.955
			c-0.635,0.314-1.588,0.314-2.225,0.314h-0.951v-8.259h1.906c0.635,0,0.953,0,1.27,0c2.223,0.323,3.176,1.591,3.176,3.497
			C224.18,92.499,223.861,93.771,222.91,94.405z"/>
		<path fill="#FFFFFF" d="M269.904,103.932c-0.316-0.316-0.635-0.95-1.588-2.225l-9.209-15.556h-1.588l-0.635,1.265l-8.254,14.291
			c-0.637,1.274-1.273,1.908-1.588,2.225c-0.318,0.316-0.637,0.316-1.588,0.316h-0.318v1.271h6.35v-1.271h-0.314
			c-0.32,0-0.637,0-0.637,0c-0.637,0-0.951,0-0.951-0.316s0.314-0.95,0.951-2.225l1.271-1.904h5.078h5.082l1.27,1.904
			c0.637,1.274,0.951,1.908,0.951,2.225s-0.633,0.316-2.221,0.635h-0.318v1.27h10.16v-1.27h-0.316
			C270.857,103.932,270.223,103.932,269.904,103.932z M257.205,98.216h-4.447l4.127-7.303l0,0l4.447,7.303H257.205z"/>
		<path fill="#FFFFFF" d="M284.512,87.416L284.512,87.416c1.27,0,2.223,0.323,2.223,0.323c0.318,0.314,0.318,0.951,0.318,1.902
			v11.75c0,1.271,0,1.904-0.318,1.904c-0.316,0.319-0.953,0.319-1.906,0.319h-0.316v1.268h10.16v-1.268h-0.316
			c-0.953,0-1.904-0.319-1.904-0.319c-0.318-0.314-0.318-0.951-0.318-1.904V89.958c0-1.268,0-1.904,0.318-1.904
			c0.316-0.314,0.951-0.314,1.904-0.314h0.316v-1.273h-10.16V87.416z"/>
		<path fill="#FFFFFF" d="M315.949,102.026c-1.59-1.272-2.225-3.493-2.225-6.352c0-2.855,0.635-4.762,1.906-6.35
			c1.27-1.586,3.174-2.225,5.398-2.225c1.904,0,3.492,0.315,4.443,0.953c0.318,0.318,0.637,0.953,0.637,2.225v0.316h2.541v-3.811
			c-2.859-0.633-5.398-0.951-7.621-0.951c-4.129,0-6.986,0.951-9.209,2.539c-2.225,1.906-3.176,4.127-3.176,7.303
			c0,3.175,1.27,5.717,3.492,7.307c2.223,1.901,5.4,2.538,9.525,2.538c2.859,0,5.4-0.316,7.941-1.271v-1.903
			c-2.541,0.951-4.768,1.271-6.986,1.271C319.439,104.248,317.537,103.615,315.949,102.026z"/>
		<path fill="#FFFFFF" d="M359.133,102.026c0,0.955-0.318,1.589-0.318,1.905c-0.316,0-0.951,0.316-2.539,0.316h-1.906
			c-1.27,0-2.221,0-2.539,0s-0.635-0.952-0.635-2.222v-5.715h3.492c0.951,0,1.904,0,2.223,0c0.316,0,0.316,0.316,0.316,1.271V97.9
			h1.588v-4.768h-1.588v0.321c0,0.633,0,1.27-0.316,1.27c-0.318,0-0.953,0-2.223,0h-3.176v-7.308h5.08c0.951,0,1.588,0,1.906,0.323
			c0.316,0,0.316,0.314,0.316,0.951c0,0,0,0.316,0,0.635v0.316h2.541v-3.49h-17.467v1.265h0.318c0.953,0,1.908,0.323,1.908,0.323
			c0.316,0.314,0.316,0.951,0.316,1.902v11.75c0,1.271,0,1.904-0.316,1.904c-0.32,0.319-0.955,0.319-1.908,0.319h-0.318v1.268h18.42
			v-3.491L359.133,102.026L359.133,102.026z"/>
		<path fill="#FFFFFF" d="M385.805,94.087l-1.588-0.633c-1.268-0.635-2.221-1.272-2.539-1.588c-0.637-0.32-0.637-0.953-0.637-1.588
			c0-0.953,0.322-1.588,0.955-2.225c0.633-0.638,1.586-0.953,2.541-0.953c1.268,0,2.221,0.315,2.855,0.953
			c0.316,0.318,0.635,0.953,0.635,2.225v0.316h2.539v-3.811c-2.539-0.633-4.445-0.951-6.35-0.951c-2.539,0-4.443,0.633-5.717,1.583
			c-1.586,0.956-2.221,2.226-2.221,3.815c0,2.223,1.906,4.129,6.033,5.717l1.59,0.634c1.268,0.633,2.219,1.268,2.541,1.584
			c0.314,0.637,0.633,1.276,0.633,1.909c0,0.951-0.318,1.906-1.271,2.54c-0.951,0.633-1.902,0.951-3.176,0.951
			c-1.266,0-2.541-0.318-3.492-0.951c-0.637-0.319-0.637-0.952-0.951-2.224v-0.316h-2.539v4.128c2.539,0.316,4.76,0.633,6.666,0.633
			c2.857,0,5.08-0.633,6.67-1.588c1.584-0.952,2.539-2.541,2.539-4.127c0-1.271-0.32-2.221-1.271-3.173
			C389.615,95.995,388.027,95.042,385.805,94.087z"/>
		<rect x="9.842" y="67.733" fill="#FFFFFF" width="383.267" height="3.177"/>
	</g>
</g>
</svg>
