<?xml version="1.0" encoding="utf-8"?>
<!-- Generator: Adobe Illustrator 24.0.0, SVG Export Plug-In . SVG Version: 6.00 Build 0)  -->
<svg version="1.0" id="Capa_1" xmlns="http://www.w3.org/2000/svg" xmlns:xlink="http://www.w3.org/1999/xlink" x="0px" y="0px"
	 viewBox="0 0 167.2 24.5" style="enable-background:new 0 0 167.2 24.5;" xml:space="preserve">
<style type="text/css">
	.st0{fill:#FFFFFF;}
</style>
<g id="XMLID_1226_">
	<g>
		<path id="XMLID_149_" class="st0" d="M48.6,1.5c-5.8,0-10.7,4.9-10.7,11c0,6.1,4.9,11,10.7,11c5.8,0,10.7-4.9,10.7-11
			C59.1,6.4,54.4,1.5,48.6,1.5z M48.6,19.9c-4,0-7-3.5-7-7.7c0-4.2,3.3-7.7,7-7.7c4,0,7,3.5,7,7.7C55.6,16.7,52.3,19.9,48.6,19.9z
			 M35.5,8.7c0-3.7-3.3-6.8-7-6.8h-8.4v21h3.5v-7.7h3.7l4.7,7.5h4.2l-4.9-8.2C33.6,13.6,35.5,11.5,35.5,8.7z M28,12.2h-4.4V5H28
			c2.1,0,3.7,1.6,3.7,3.7C31.8,10.6,30.1,12.2,28,12.2z M160.4,14.8c2.3-0.9,4.2-3.3,4.2-6.1c0-3.7-3.3-6.8-7-6.8h-8.2v21h3.5v-7.7
			h3.7l4.7,7.5h4.2L160.4,14.8z M157.3,12.2h-4.4V5h4.4c2.1,0,3.7,1.6,3.7,3.7C160.8,10.6,159.2,12.2,157.3,12.2z M10.3,1.7H2.1v21
			h3.5v-7.2h4.7c4,0,7-3,7-6.8C17.3,5,14,1.7,10.3,1.7z M10.1,12.5H5.6V5h4.4c2.1,0,3.7,1.6,3.7,3.7C13.8,10.6,12.2,12.5,10.1,12.5z
			 M68.6,7.8l2.1,3.5L76.6,2h-4.2L68.6,7.8z M129.3,1.7h-15.2V5h5.8v18h3.7V5h5.6V1.7z M63.5,1.7h-4.2l6.5,10.5l-6.5,10.5h4.2
			L70,12.5L63.5,1.7z M104.8,4.8c2.1,0,4,0.9,5.1,2.6l2.3-2.6c-1.9-2.1-4.7-3.3-7.7-3.3c-5.8,0-10.7,4.9-10.7,11
			c0,6.1,5.1,11,11.2,11c3,0,5.4-1.2,7.2-3.3l-2.3-2.6c-1.4,1.4-3,2.6-5.1,2.6c-4,0-7-3.5-7-7.7C97.6,8.3,100.8,4.8,104.8,4.8z
			 M137.3,1.5L137.3,1.5L135.6,5l-8.2,17.7h4L133,19h8.9l1.6,3.7h4L138.9,5L137.3,1.5z M134.2,16.2l3-7.2l3,7.2H134.2z M78.4,23
			h13.3v-3.5h-9.8v-5.6h8.4v-3.3h-8.4V5.2h9.8V1.7H78.4V23z"/>
	</g>
</g>
</svg>
