<?xml version="1.0" encoding="utf-8"?>
<!-- Generator: Adobe Illustrator 24.0.0, SVG Export Plug-In . SVG Version: 6.00 Build 0)  -->
<svg version="1.0" id="Layer_1" xmlns="http://www.w3.org/2000/svg" xmlns:xlink="http://www.w3.org/1999/xlink" x="0px" y="0px"
	 viewBox="0 0 187 58.5" style="enable-background:new 0 0 187 58.5;" xml:space="preserve">
<style type="text/css">
	.st0{fill:#FFFFFF;}
</style>
<g>
	<path class="st0" d="M4.9,9.7c0.2-0.1,0.3-0.3,0.5-0.5s0.3-0.5,0.5-0.9C6.1,8,6.2,7.7,6.3,7.4c0.1-0.3,0.3-0.5,0.4-0.6
		C7.1,6.5,7.4,6.2,7.7,6C8,5.7,8.3,5.5,8.6,5.3s0.6-0.4,1-0.6c0.3-0.2,0.7-0.4,1.1-0.6L14,4.1c0.1,0.1,0.3,0.2,0.5,0.2
		c0.2,0,0.4,0,0.6,0.1c0.2,0,0.4,0,0.6,0.1c0.2,0,0.4,0.1,0.5,0.3h2c0-0.1,0.1-0.1,0.2-0.2s0.2-0.1,0.3-0.1c0.1,0,0.2-0.1,0.3-0.1
		c0.1,0,0.2-0.1,0.2-0.2h1.5c0.1,0.2,0.2,0.3,0.3,0.5c0.1,0.1,0.2,0.3,0.2,0.4c0,0.2-0.1,0.3-0.2,0.5c-0.1,0.2-0.2,0.3-0.3,0.5
		l-1.2,1.3c-0.1,0.5-0.4,1-0.9,1.4s-0.9,0.7-1.4,0.9c-0.5,0.2-1,0.4-1.4,0.6s-0.7,0.2-0.7,0.3h-3.2c0,0-0.1,0-0.2,0
		c-0.1,0-0.2,0-0.3,0c-0.1,0-0.2-0.1-0.3-0.1s-0.2-0.1-0.2-0.2h-2c-0.3,0-0.5,0.1-0.7,0.3c-0.2,0.2-0.4,0.4-0.6,0.6
		s-0.4,0.4-0.5,0.6c-0.2,0.2-0.4,0.3-0.7,0.3c-0.2,0-0.4,0-0.5-0.1c-0.1-0.1-0.3-0.2-0.4-0.3c-0.1-0.1-0.2-0.2-0.3-0.3
		s-0.2-0.2-0.3-0.2L4.9,9.7L4.9,9.7z M5,46.9c0-2.4,0.5-4.3,1.5-5.7c1-1.4,2.6-2.5,4.6-3.4l0,0c0,0,0-0.1,0-0.1l4.8-0.1
		c0.1,0.1,0.2,0.1,0.3,0.1c0.2,0,0.3,0,0.4,0c0,0,0.1,0,0.2,0l3.6,0.1l0.1,0.1c0,0,0.1,0,0.1,0h0.7l0.6-0.1c0.2,0,0.4,0,0.6,0
		c0.2,0,0.3,0,0.6,0c0.3,0,0.7,0,1-0.1c0.3-0.1,0.6-0.2,0.9-0.3c0.3-0.1,0.6-0.2,0.9-0.3c0.3-0.1,0.6-0.1,0.9-0.1h0.7
		c0,0.1,0.1,0.3,0.2,0.3c0.1,0.1,0.1,0.2,0.2,0.2c0.1,0.1,0.1,0.1,0.2,0.2c0.1,0.1,0.1,0.2,0.1,0.3c0,0.3-0.1,0.6-0.3,0.8
		c-0.2,0.3-0.4,0.5-0.7,0.8c-0.3,0.3-0.5,0.5-0.7,0.8c-0.2,0.3-0.3,0.6-0.3,1L24.8,43c-0.1,0-0.3,0.1-0.5,0.2s-0.4,0.2-0.6,0.3
		c-0.2,0.1-0.4,0.3-0.6,0.4c-0.2,0.2-0.3,0.3-0.4,0.4h-5.1l-0.1-0.3h-1.5l-0.1-0.2l-6.5-0.1C9.3,44,9,44.3,8.8,44.7
		C8.5,45.2,8.2,45.6,8,46c-0.2,0.4-0.5,0.8-0.7,1.2c-0.2,0.3-0.3,0.5-0.4,0.5H5.4c0-0.2-0.1-0.3-0.2-0.4C5.1,47.2,5,47.1,5,46.9z
		 M10.6,32l0.1-5c-0.1,0-0.2,0-0.3-0.1c-0.1-0.1-0.2-0.1-0.3-0.1L10,26.7l-2.4,0.1c-0.1,0-0.2-0.1-0.3-0.4c-0.1-0.2-0.1-0.5-0.1-0.8
		v0c0-0.1,0-0.1,0.1-0.1v-0.1c0-0.2,0.1-0.4,0.2-0.7c0.1-0.3,0.3-0.6,0.5-0.9c0.2-0.3,0.4-0.7,0.7-1c0.2-0.3,0.5-0.6,0.8-0.9
		c0.3-0.3,0.5-0.5,0.8-0.7s0.4-0.3,0.6-0.3v-3c0.3-0.1,0.5-0.4,0.7-0.8s0.4-0.9,0.7-1.4c0.2-0.5,0.5-1,0.8-1.6
		c0.3-0.5,0.7-0.9,1.1-1.2l0.6-0.1l0.5-0.6h1.5c0,0.1,0,0.2,0.1,0.4c0.1,0.2,0.1,0.3,0.1,0.4c0,0.1,0,0.3-0.1,0.5
		c-0.1,0.2-0.1,0.4-0.2,0.6s-0.2,0.4-0.3,0.6s-0.2,0.3-0.3,0.4V20c0.1,0.1,0.1,0.2,0.1,0.3l-0.1,0.4c0,0.1,0,0.2,0,0.3
		c0,0.1,0,0.3,0,0.4s0.1,0.3,0.1,0.4c0.1,0.1,0.2,0.2,0.3,0.2v1.8l0.1,0.2V27c-0.1,0.1-0.2,0.3-0.3,0.7S16.1,28.5,16,29
		s-0.3,0.8-0.4,1.2c-0.1,0.4-0.2,0.6-0.2,0.7c-0.2,0-0.4,0.2-0.7,0.4c-0.3,0.2-0.5,0.5-0.8,0.8c-0.3,0.3-0.5,0.6-0.8,0.9
		c-0.3,0.3-0.5,0.5-0.6,0.6h-1.3l-0.7-0.6L10.6,32L10.6,32z M30.6,32.6c-0.2-0.5-0.3-1-0.3-1.6c0-0.5-0.1-1-0.2-1.5
		c-0.1-0.5-0.4-0.8-0.7-1.1c-0.4-0.3-1-0.4-1.8-0.4h-2.6c-0.1-0.1-0.2-0.1-0.4-0.1c-0.1,0-0.2,0.2-0.3,0.6s-0.4,0.8-0.6,1.4
		c-0.2,0.6-0.5,1.2-0.9,1.8c-0.3,0.7-0.7,1.3-1.1,1.8c-0.4,0.6-0.9,1-1.4,1.4c-0.5,0.4-1.1,0.6-1.7,0.6H18c-0.1-0.2-0.1-0.3-0.3-0.4
		c-0.1-0.1-0.2-0.2-0.3-0.3s-0.2-0.2-0.2-0.3s-0.1-0.3-0.1-0.5c0-0.1,0-0.2,0.1-0.4s0.1-0.3,0.2-0.5s0.2-0.3,0.3-0.4
		c0.1-0.1,0.2-0.2,0.3-0.3l0.1-6.3C18,26,18,25.9,18,25.8c0-0.2,0-0.2,0.1-0.2L18,21.9c0.1,0,0.1-0.1,0.1-0.3c0-0.1,0-0.2,0-0.3
		c0-0.1,0-0.1,0-0.2c0,0,0-0.1,0-0.2c0-0.1,0-0.1,0-0.2c0-0.2,0.1-0.4,0.2-0.4v-7.7c0.1,0,0.2-0.1,0.3-0.2c0-0.2,0.1-0.3,0.1-0.5
		c0-0.2,0-0.4,0.1-0.5c0-0.2,0.1-0.2,0.3-0.2v-1c0.1,0,0.3-0.2,0.5-0.5c0.3-0.3,0.5-0.7,0.8-1.2c0.3-0.5,0.7-1,1-1.6
		c0.4-0.6,0.8-1.1,1.2-1.6c0.4-0.5,0.8-0.9,1.2-1.2s0.7-0.5,1-0.5l1.6-1.5c0.2-0.1,0.3-0.2,0.5-0.3c0.1-0.1,0.3-0.2,0.4-0.3
		c0.1-0.1,0.3-0.2,0.4-0.2s0.3-0.1,0.5-0.1c0.4,0,0.8,0.1,1.1,0.3S29.7,2,30,2.3c0.3,0.3,0.6,0.6,0.8,0.9s0.6,0.5,1,0.7
		c1.3,0.5,2.4,1.3,3.4,2.3c1,1,1.8,2.2,2.4,3.4c0.1,0.2,0.2,0.4,0.3,0.6c0.1,0.2,0.1,0.5,0.2,0.8c0.1,0.3,0.1,0.5,0.2,0.7
		s0.2,0.4,0.3,0.6v2.5l-0.1,0.2v1.6c-0.2,0.2-0.4,0.4-0.5,0.7s-0.3,0.7-0.3,1.1c-0.1,0.4-0.2,0.7-0.3,1.1c-0.1,0.4-0.2,0.7-0.3,0.9
		c-0.2,0.4-0.5,0.8-0.8,1.2c-0.4,0.4-0.8,0.8-1.1,1.1c-0.4,0.3-0.7,0.7-1.1,0.9c-0.3,0.3-0.5,0.5-0.6,0.7c1,0.4,1.8,0.9,2.4,1.3
		s1,1,1.3,1.5c0.3,0.5,0.4,1.1,0.5,1.8c0,0.6,0.1,1.4,0.1,2.1v4.7c0.1,0.3,0.1,0.6,0.2,0.9c0.1,0.3,0.2,0.5,0.3,0.8
		c0.1,0.2,0.3,0.4,0.5,0.5c0.2,0.1,0.5,0.2,0.9,0.2H40l1.7-0.6c0.3,0,0.6,0.1,0.7,0.2c0.2,0.1,0.3,0.3,0.4,0.5
		c0.1,0.2,0.1,0.4,0.2,0.7c0,0.2,0,0.5,0,0.8c0,0.6-0.2,1.2-0.5,1.7c-0.3,0.5-0.8,1-1.3,1.4c-0.5,0.4-1.1,0.7-1.7,1
		c-0.6,0.2-1.2,0.4-1.7,0.4c-0.8,0-1.6-0.1-2.5-0.2c-0.8-0.2-1.6-0.4-2.3-0.8c-0.7-0.4-1.3-0.9-1.7-1.5c-0.4-0.6-0.7-1.4-0.7-2.3v-2
		c0-0.1,0-0.1,0-0.2c0-0.1,0-0.2,0-0.2L30.6,32.6L30.6,32.6z M25.7,21.6c0.3,0,0.5,0,0.8,0.1s0.5,0.2,0.8,0.3
		c0.3,0.1,0.6,0.2,0.9,0.3c0.3,0.1,0.6,0.1,0.9,0.1h0.7c0.2-0.1,0.4-0.2,0.5-0.3s0.3-0.2,0.6-0.3l1.3-1.3c0.1-0.1,0.1-0.1,0.1-0.1
		c0,0,0-0.1,0.1-0.1l0.1-2.2c0.1-0.1,0.2-0.2,0.2-0.5c0-0.1,0-0.1,0-0.2s0-0.1,0-0.1c0,0,0-0.1,0-0.1s0-0.1,0-0.2
		c0-0.2-0.1-0.4-0.2-0.5v-1.6c-0.1,0-0.2-0.1-0.2-0.2l0.1-0.3c-0.1-0.2-0.3-0.4-0.5-0.6c-0.2-0.3-0.4-0.6-0.6-0.9
		c-0.2-0.3-0.4-0.6-0.6-0.9c-0.2-0.3-0.3-0.5-0.4-0.7l-1.9-1.9c-0.2,0-0.4-0.1-0.6-0.2c-0.2-0.1-0.4-0.2-0.6-0.3
		c-0.2-0.1-0.4-0.2-0.6-0.4c-0.2-0.1-0.3-0.3-0.4-0.4h-1.6c-0.2,0-0.3,0.1-0.4,0.3C24.2,8.5,24.1,8.7,24,9c-0.1,0.3-0.1,0.5-0.2,0.7
		c-0.1,0.2-0.1,0.4-0.2,0.4v4.3l0.3,0.3v3.1c0.1,0.1,0.1,0.2,0.1,0.3l-0.1,0.3l0.1,0.7c0,0.2,0,0.4,0,0.6c0,0.2,0,0.3,0,0.6
		c0,0.1,0,0.3,0,0.5c0,0.2,0,0.4,0.1,0.6c0,0.2,0.1,0.4,0.2,0.5c0.1,0.2,0.2,0.3,0.3,0.3c0.2-0.2,0.5-0.3,0.6-0.4
		C25.2,21.7,25.4,21.6,25.7,21.6z"/>
	<path class="st0" d="M50.4,43.7c0-0.1-0.1-0.2-0.2-0.3c-0.1,0-0.3-0.1-0.4-0.1s-0.3,0-0.4-0.1c-0.1,0-0.2-0.1-0.2-0.3H47
		c0-0.2-0.1-0.3-0.2-0.5s-0.3-0.2-0.5-0.2v-1c0.1,0,0.2-0.1,0.2-0.2c0-0.1,0-0.2,0.1-0.4c0-0.1,0.1-0.3,0.2-0.4s0.2-0.2,0.3-0.3
		v-2.4l0.1-0.1v-1.7L47,35.8v-2.4c0,0,0.2-0.2,0.6-0.4c0.4-0.3,0.9-0.6,1.6-0.9s1.3-0.8,2-1.2c0.7-0.4,1.4-0.8,2.1-1.2
		c0.7-0.4,1.2-0.7,1.7-0.9c0.5-0.2,0.8-0.4,0.9-0.4l0.1-0.1h1.7c0.3,0,0.4,0.1,0.5,0.4s0.1,0.4,0.1,0.6v0.4L58.3,30l0.1,0.3
		c0,0-0.2,0.2-0.5,0.4c-0.3,0.2-0.7,0.4-1.1,0.7c-0.4,0.3-0.8,0.5-1.1,0.7c-0.3,0.2-0.5,0.3-0.6,0.3l-0.9,0.9v1.5
		c-0.1,0-0.1,0-0.1,0c0,0-0.1,0-0.1,0c0,0.1,0,0.2,0.1,0.2c0,0,0.1,0.1,0.1,0.1c0,0.2,0,0.4-0.1,0.4v0.8l0.1,0.1L54,36.6V38
		c0,0.2,0.1,0.4,0.4,0.5c0.3,0.1,0.6,0.2,0.9,0.3c0.3,0.1,0.7,0.2,1,0.2c0.3,0.1,0.5,0.2,0.6,0.4h0.8c0.1-0.1,0.2-0.2,0.4-0.3
		s0.5-0.2,0.7-0.2c0.3-0.1,0.5-0.2,0.7-0.3c0.2-0.1,0.3-0.2,0.3-0.4v-4.8l0.1-0.1v-5.1l-0.1-0.1c-0.1-0.3-0.3-0.5-0.5-0.8
		c-0.3-0.2-0.5-0.5-0.9-0.7c-0.3-0.2-0.6-0.4-1-0.5c-0.4-0.1-0.7-0.2-1-0.2c0-0.2-0.1-0.4-0.2-0.4c-0.1-0.1-0.2-0.2-0.4-0.2
		c-0.2-0.1-0.3-0.1-0.4-0.2c-0.1-0.1-0.3-0.2-0.4-0.4h-1.3c-0.1,0.2-0.3,0.4-0.6,0.5s-0.5,0.3-0.8,0.4s-0.5,0.3-0.8,0.4
		c-0.2,0.1-0.4,0.3-0.5,0.5h-1.2c-0.2-0.3-0.5-0.5-0.7-0.6s-0.4-0.5-0.4-0.9c0-0.2,0-0.3,0.1-0.4s0.1-0.3,0.1-0.6
		c1-0.8,1.9-1.6,2.8-2.2c0.7-0.6,1.4-1.1,2-1.6c0.6-0.5,1-0.8,1.2-0.8c0.2-0.1,0.4-0.2,0.6-0.4c0.3-0.1,0.5-0.2,0.6-0.4h2.1
		c0.2,0.3,0.6,0.7,1.3,1.1c0.7,0.4,1.4,0.9,2.1,1.3c0.7,0.4,1.4,0.8,2,1.1s0.9,0.5,0.9,0.5h2.2c0.3,0,0.5,0.2,0.8,0.5
		c0.2,0.3,0.4,0.6,0.4,0.9v0.4c-0.1,0-0.2,0.1-0.2,0.3s-0.1,0.4-0.2,0.6s-0.2,0.4-0.3,0.6s-0.2,0.3-0.4,0.3h-0.1v1.9l-0.2,0.1v3
		c-0.2,0-0.2,0.1-0.2,0.2c0,0.1,0,0.2,0.1,0.2c0,0,0.1,0.1,0.1,0.2c0,0.2,0,0.4-0.1,0.4v4.4c0.1,0,0.3,0.3,0.7,0.8
		c0.4,0.5,0.9,1,1.4,1.5c0.1,0.1,0.2,0.1,0.3,0.2c0.1,0.1,0.2,0.2,0.3,0.2h2.1c0,0,0.1,0.1,0.3,0.2c0.2,0.1,0.3,0.2,0.3,0.3v1.7
		c0,0.1-0.3,0.4-0.8,0.7c-0.5,0.3-1.1,0.7-1.7,1s-1.3,0.7-1.9,0.9c-0.6,0.3-1,0.4-1.3,0.4c-0.2,0-0.4,0-0.7-0.1s-0.4-0.2-0.4-0.4h-1
		c-0.1-0.1-0.2-0.2-0.4-0.4s-0.3-0.3-0.5-0.4c-0.2-0.2-0.4-0.3-0.5-0.4c-0.2-0.1-0.3-0.1-0.4-0.1l-1.2-1.2h-1.3
		c-0.1,0.1-0.3,0.3-0.8,0.6c-0.5,0.3-1,0.6-1.6,1c-0.6,0.3-1.2,0.7-1.7,1c-0.6,0.3-1,0.5-1.2,0.6L54.3,45h-1c0,0-0.2-0.1-0.4-0.2
		c-0.2-0.1-0.4-0.3-0.7-0.4c-0.2-0.2-0.4-0.3-0.6-0.4s-0.3-0.2-0.3-0.3C51.4,43.7,50.4,43.7,50.4,43.7z"/>
	<path class="st0" d="M75.7,42.2c0,0,0,0.1,0,0.1c0,0.2-0.1,0.2-0.3,0.2h-0.1c-0.2,0-0.3,0.1-0.4,0.2h-0.3c-0.2,0-0.4,0-0.6,0
		c-0.2,0-0.3-0.2-0.3-0.4v-1.5c0.2-0.2,0.2-0.3,0.2-0.5l1-1c0-0.1,0.1-0.3,0.3-0.5c0.2-0.2,0.4-0.4,0.6-0.7c0.2-0.2,0.4-0.4,0.6-0.6
		c0.2-0.2,0.3-0.3,0.3-0.3v-2.8l0.1-0.1l-0.1-0.3v-0.8l0.1-0.1v-1.3L76.6,32v-2.6L76.3,29H75c-0.1,0-0.2,0-0.3-0.1s-0.1-0.1-0.1-0.2
		c0-0.1,0-0.2-0.1-0.3s-0.1-0.2-0.2-0.2v-0.8c0,0,0.1-0.1,0.2-0.2c0.1-0.1,0.1-0.2,0.2-0.3c0.1-0.1,0.1-0.2,0.2-0.3s0.1-0.2,0.1-0.3
		c0.1,0,0.2-0.2,0.4-0.4c0.2-0.2,0.5-0.4,0.8-0.6s0.6-0.5,1-0.8c0.4-0.3,0.7-0.5,1-0.7c0.3-0.2,0.6-0.4,0.8-0.5
		c0.2-0.1,0.3-0.2,0.4-0.2l1.3-1.3c0.1,0,0.3-0.1,0.5-0.3c0.2-0.2,0.4-0.4,0.7-0.6c0.2-0.2,0.5-0.4,0.8-0.6c0.3-0.2,0.5-0.3,0.8-0.4
		v-0.8c-0.1,0-0.2-0.2-0.4-0.4s-0.3-0.5-0.5-0.8c-0.2-0.4-0.4-1-0.7-1.6c-0.3-0.6-0.5-1.2-0.7-1.7c-0.2-0.5-0.4-1-0.6-1.4
		c-0.2-0.4-0.2-0.6-0.3-0.6V11l-0.2-0.1V9.2c0.1,0,0.1-0.1,0.2-0.3s0.2-0.4,0.3-0.6s0.2-0.5,0.3-0.7c0.1-0.2,0.2-0.4,0.3-0.5
		C81.5,7,81.8,6.9,82,6.7c0.3-0.2,0.5-0.3,0.8-0.5c0.3-0.2,0.6-0.3,0.9-0.4c0.3-0.1,0.6-0.2,0.8-0.2c0.2,0,0.4,0.1,0.5,0.2
		c0.1,0.1,0.3,0.2,0.3,0.4s0.2,0.3,0.3,0.5s0.1,0.3,0.2,0.5l0,0c0,0,0.1,0,0.1,0v1c0.1,0,0.1,0,0.1,0.1c0,0.1,0,0.1,0,0.2
		s0,0.1,0.1,0.2c0,0.1,0.1,0.1,0.2,0.1v1c0.1,0,0.1,0,0.2,0.1c0,0.1,0.1,0.2,0.1,0.2c0,0.1,0.1,0.2,0.2,0.3c0.1,0.1,0.1,0.1,0.2,0.2
		v1c-0.1-0.1,0,0,0.1,0.3c0.1,0.2,0.3,0.6,0.6,1c0.2,0.4,0.5,0.8,0.8,1.3s0.6,0.9,0.9,1.4c0.3,0.4,0.5,0.8,0.7,1.1
		c0.2,0.3,0.3,0.5,0.3,0.6l1.4,1.4c0.1,0,0.2,0.1,0.5,0.3c0.2,0.2,0.5,0.4,0.8,0.6c0.3,0.2,0.6,0.5,0.8,0.7c0.3,0.2,0.5,0.4,0.6,0.5
		c0.1,0,0.3,0.1,0.7,0.2c0.4,0.1,0.7,0.2,1.1,0.3c0.4,0.1,0.7,0.2,1,0.4c0.3,0.1,0.4,0.2,0.4,0.3v1.5c-0.1,0-0.2,0.1-0.4,0.3
		c-0.1,0.1-0.3,0.3-0.4,0.5s-0.3,0.3-0.4,0.4c-0.1,0.1-0.2,0.2-0.3,0.3v3.9c-0.1,0-0.2,0-0.2,0.1c0,0.1,0,0.2,0,0.2c0,0,0,0.1,0,0.3
		c0,0.1,0,0.2,0,0.2c0,0,0,0.1,0,0.1c0,0,0,0.1,0,0.1s0,0.1,0,0.2c0,0.2,0,0.3,0,0.4c0,0.1,0,0.2,0,0.3s0,0.2-0.1,0.2v2.4
		c-0.1,0-0.2,0-0.2,0l0,0l0,0.2c0,0,0.1,0,0.2,0v1.3c0.1,0,0.1,0.1,0.2,0.2c0,0.1,0.1,0.2,0.1,0.3c0,0.1,0.1,0.2,0.2,0.2
		c0.1,0.1,0.2,0.1,0.3,0.1h0.1v1.4C97.1,37,97,37,97,37.1s-0.1,0.2-0.2,0.3c0,0.1-0.1,0.2-0.2,0.3c-0.1,0.1-0.1,0.2-0.2,0.3
		c-1,0.6-2,1.2-3,1.8c-1,0.6-2,1.1-3,1.7c-0.4,0.2-0.8,0.5-1.2,0.8s-0.7,0.6-1.1,0.9c-0.4,0.3-0.7,0.6-1.1,0.8
		c-0.4,0.3-0.8,0.5-1.3,0.6l-0.1,0.1h-1.9c0-0.2-0.1-0.3-0.3-0.5c-0.2-0.2-0.4-0.3-0.7-0.5c-0.3-0.2-0.6-0.3-1-0.4
		c-0.4-0.1-0.7-0.3-1-0.4s-0.6-0.3-0.9-0.4c-0.2-0.1-0.4-0.3-0.5-0.4L75.7,42.2L75.7,42.2z M83.4,37.1c0.5,0.2,1,0.4,1.5,0.7
		s1,0.5,1.4,0.7c0.4,0.2,0.7,0.4,0.7,0.5h1.2l0.1-0.1c0.1-0.1,0.3-0.1,0.4-0.2c0.1-0.1,0.2-0.2,0.3-0.2c0.1-0.1,0.2-0.1,0.3-0.2
		c0.1-0.1,0.2-0.1,0.3-0.1V25.4c-0.1,0-0.2-0.1-0.5-0.2s-0.5-0.3-0.8-0.5c-0.3-0.2-0.6-0.3-0.8-0.5s-0.4-0.3-0.5-0.3
		c0,0-0.1-0.1-0.2-0.2c-0.1-0.1-0.2-0.3-0.3-0.4c-0.1-0.1-0.2-0.3-0.3-0.4c-0.1-0.1-0.2-0.2-0.2-0.2h-1.2c0,0.1-0.2,0.2-0.4,0.4
		c-0.3,0.1-0.5,0.3-0.8,0.5c-0.3,0.2-0.6,0.3-0.8,0.5c-0.2,0.2-0.4,0.3-0.4,0.5v2.1l0.1,0.1v6.9l-0.1,0.1v3.1
		C82.6,36.8,82.9,36.9,83.4,37.1z"/>
	<path class="st0" d="M101.8,40.7c0.1,0,0.1-0.1,0.2-0.1c0-0.1,0.1-0.1,0.1-0.2c0-0.1,0.1-0.2,0.1-0.2c0-0.1,0.1-0.2,0.2-0.2v-5.7
		l0.1-0.2l-0.1-0.1v-1.7l0.1-0.1v-0.1c0-0.1,0-0.1-0.1-0.1c0,0-0.1-0.1-0.1-0.2c0-0.1,0-0.1,0.1-0.1c0,0,0.1-0.1,0.1-0.2
		c0-0.1,0-0.1-0.1-0.1c0,0-0.1-0.1-0.1-0.2c0-0.1,0-0.1,0.1-0.1c0,0,0.1-0.1,0.1-0.2l-0.1-0.1v-0.8c0.1,0,0.1-0.1,0.1-0.3
		c0-0.1,0-0.1-0.1-0.2c0,0-0.1-0.1-0.1-0.3v-0.1c0-0.1,0-0.1,0.1-0.1v-1.5c-0.2-0.1-0.3-0.2-0.4-0.3c-0.1-0.1-0.2-0.2-0.3-0.4
		c-0.1-0.1-0.2-0.2-0.3-0.3c-0.1-0.1-0.3-0.2-0.4-0.2l0,0c0,0,0-0.1,0-0.2h-1.2c-0.1-0.1-0.2-0.2-0.3-0.3c-0.1-0.1-0.2-0.1-0.4-0.1
		V24c0.1,0,0.1-0.1,0.2-0.2s0.1-0.2,0.2-0.3c0.1-0.1,0.1-0.2,0.2-0.3s0.1-0.2,0.1-0.3c0.1-0.2,0.3-0.5,0.7-0.8s0.8-0.6,1.2-1
		c0.4-0.3,0.9-0.6,1.3-0.8c0.4-0.2,0.8-0.3,1-0.3c0.1,0,0.3,0.1,0.5,0.2c0.2,0.2,0.5,0.3,0.9,0.6s0.7,0.5,1,0.8
		c0.4,0.3,0.7,0.5,1,0.8c0.3,0.2,0.5,0.5,0.7,0.6c0.2,0.2,0.3,0.3,0.3,0.3v13l-0.1,0.1v2.2c0,0.1,0.1,0.2,0.3,0.4s0.4,0.3,0.7,0.4
		s0.5,0.3,0.8,0.3c0.3,0.1,0.5,0.1,0.6,0.1l0.2-0.1h1.1l0.5,0.5v1.7c0,0-0.1,0.1-0.3,0.3c-0.2,0.2-0.4,0.4-0.7,0.6s-0.6,0.4-1,0.7
		c-0.4,0.2-0.7,0.5-1,0.7c-0.3,0.2-0.6,0.4-0.9,0.5c-0.2,0.2-0.4,0.2-0.5,0.3l-0.1,0.1h-1.3l-1.1-0.4c-0.3-0.1-0.5-0.2-0.7-0.3
		s-0.4-0.2-0.4-0.2c-0.1-0.1-0.2-0.3-0.5-0.5c-0.3-0.2-0.5-0.4-0.8-0.7s-0.6-0.4-0.8-0.6c-0.3-0.2-0.4-0.3-0.5-0.3L101.8,40.7
		L101.8,40.7z M99.8,13.8c0-0.1,0-0.3-0.1-0.4c0-0.2-0.1-0.3-0.3-0.3c-0.1,0-0.1,0-0.1,0v-1c0.1,0,0.2-0.1,0.3-0.3
		c0.1-0.2,0.3-0.4,0.4-0.7l0.6-1l1.3-1.3c0.1,0,0.2-0.1,0.4-0.2c0.2-0.1,0.4-0.2,0.6-0.3c0.2-0.1,0.4-0.2,0.5-0.3
		c0.2-0.1,0.2-0.2,0.2-0.2h0.8c0.1,0.2,0.3,0.4,0.5,0.6s0.5,0.3,0.8,0.4c0.3,0.1,0.5,0.3,0.8,0.4c0.2,0.1,0.4,0.3,0.5,0.5h1
		c0,0.1,0.1,0.2,0.2,0.3c0.1,0,0.2,0.1,0.3,0.1c0.1,0,0.2,0.1,0.3,0.1c0.1,0.1,0.1,0.2,0.1,0.3v1.2h-0.6v0.3l0.1,0.5
		c0,0.2-0.1,0.3-0.2,0.5c-0.1,0.1-0.3,0.2-0.5,0.2h-0.2l-0.9,0.9v0.1c0,0.2-0.1,0.4-0.3,0.5c-0.2,0.1-0.4,0.2-0.6,0.3
		c-0.2,0.1-0.4,0.2-0.6,0.2c-0.2,0.1-0.3,0.2-0.4,0.4h-1.3c-0.1-0.2-0.2-0.3-0.4-0.4c-0.2-0.1-0.4-0.2-0.6-0.4
		c-0.2-0.1-0.4-0.3-0.6-0.4s-0.4-0.3-0.5-0.6L99.8,13.8L99.8,13.8z"/>
	<path class="st0" d="M120.8,43.5c-0.3-0.2-0.7-0.3-1.1-0.6s-0.8-0.4-1.2-0.6s-0.7-0.4-1-0.5l-0.1-0.1h-1.9l-0.1,0.1h-0.8
		c-0.1-0.1-0.3-0.2-0.4-0.2v-1.5c0-0.2,0.1-0.4,0.3-0.6s0.3-0.4,0.4-0.5l1.4-1.2v-3.3l0.1-0.2l-0.1-0.2c0-0.1,0-0.1,0-0.2
		c0,0,0-0.2,0-0.3c0-0.2,0-0.3,0-0.3c0,0,0-0.1,0-0.4v-0.2c0-0.1,0-0.1,0.1-0.1v-1l-0.1-0.1l0.1-0.2v-2.1c0,0-0.1-0.1-0.3-0.2
		s-0.4-0.3-0.6-0.5c-0.2-0.2-0.4-0.4-0.6-0.5s-0.3-0.3-0.3-0.3h-1.1c-0.1,0.1-0.2,0.2-0.4,0.3c-0.2,0-0.4,0.1-0.5,0.1
		c-0.2,0-0.3,0-0.4-0.1c-0.1,0-0.1-0.1-0.2-0.1s-0.1-0.1-0.2-0.1c-0.1,0-0.2-0.1-0.3-0.1v-1.7c0-0.1,0.1-0.3,0.4-0.5
		c0.3-0.2,0.6-0.5,1-0.8c0.4-0.3,0.8-0.6,1.3-1c0.5-0.3,0.9-0.6,1.3-0.9c0.4-0.3,0.7-0.5,1-0.7c0.3-0.2,0.4-0.3,0.4-0.3h1
		c0.2,0.2,0.4,0.5,0.6,0.8c0.2,0.3,0.5,0.6,0.8,0.8c0.3,0.3,0.6,0.5,0.9,0.7c0.3,0.2,0.6,0.3,0.9,0.4l0.9,0.9c0,0.1,0.1,0.3,0.2,0.5
		v1.2l-0.1,0.1l0.1,0.2v4.6l-0.1,0.1v3.7l-0.2,0.2v1c0,0,0.1,0.1,0.3,0.2c0.2,0.1,0.4,0.2,0.7,0.4s0.6,0.3,1,0.5
		c0.4,0.2,0.7,0.4,1.1,0.5c0.3,0.2,0.7,0.3,0.9,0.4s0.5,0.2,0.6,0.3l0.1,0.1h0.8c0.1-0.2,0.2-0.2,0.4-0.2c0.2,0,0.5-0.1,0.7-0.4
		c0.2-0.2,0.4-0.5,0.6-0.9c0.2-0.3,0.3-0.7,0.4-1.1c0.1-0.4,0.2-0.7,0.3-0.9l0.1-0.2v-3.2l-0.1-0.1V31c-0.1,0-0.2-0.1-0.3-0.3
		c-0.1-0.2-0.2-0.4-0.2-0.7c-0.1-0.2-0.2-0.5-0.2-0.7c-0.1-0.2-0.2-0.3-0.3-0.4c-0.3-0.2-0.5-0.3-0.6-0.5s-0.3-0.3-0.5-0.5
		s-0.4-0.3-0.6-0.5c-0.2-0.2-0.5-0.3-0.8-0.4l-0.1-0.1h-0.2c-0.1,0-0.3,0-0.4,0s-0.3-0.1-0.5-0.1c-0.2-0.1-0.3-0.1-0.4-0.2
		c-0.1-0.1-0.2-0.2-0.2-0.4v-1.2c0.3,0,0.5-0.1,0.5-0.4l1.8-1.8c0.4-0.2,0.6-0.3,0.9-0.4c0.2-0.1,0.4-0.2,0.6-0.4
		c0.2-0.1,0.3-0.2,0.3-0.3h1.7c0,0.1,0.1,0.2,0.3,0.3s0.3,0.1,0.5,0.2c0.2,0,0.3,0.1,0.5,0.1s0.3,0.1,0.3,0.1c0.3,0.2,0.7,0.6,1,1
		c0.3,0.4,0.7,0.9,0.9,1.3c0.3,0.4,0.6,0.8,0.8,1.2c0.2,0.3,0.4,0.5,0.5,0.5v1l0.2,0.1v1.2l0.2,0.1V30l0.1,0.1v2.8
		c-0.1,0-0.2,0.1-0.2,0.3c0,0,0,0.1,0,0.2c0,0.1,0,0.1,0,0.2c0,0.1-0.1,0.2-0.2,0.2v1c-0.1,0-0.2,0.1-0.4,0.4
		c-0.2,0.2-0.3,0.6-0.5,0.9c-0.2,0.4-0.4,0.8-0.6,1.2c-0.2,0.4-0.5,0.8-0.7,1.2c-0.3,0.4-0.5,0.7-0.8,0.9c-0.3,0.2-0.5,0.4-0.8,0.4
		H131l-1.9,1.9c0,0-0.3,0.2-0.9,0.5c-0.3,0.2-0.7,0.4-1.2,0.7c-0.5,0.3-1,0.6-1.5,0.9c-0.5,0.3-0.9,0.6-1.3,0.8
		c-0.4,0.2-0.5,0.4-0.6,0.4h-0.3c-0.1,0-0.3,0-0.5-0.1c-0.2-0.1-0.4-0.2-0.6-0.3c-0.2-0.1-0.4-0.2-0.6-0.4c-0.2-0.1-0.2-0.3-0.2-0.4
		v0C121.4,43.8,121.1,43.7,120.8,43.5z"/>
	<path class="st0" d="M144.2,43.9c0-0.1-0.2-0.2-0.5-0.4c-0.4-0.2-0.7-0.3-1.2-0.5c-0.4-0.2-0.8-0.4-1.2-0.6s-0.6-0.3-0.6-0.5h-1
		c0-0.1-0.1-0.1-0.3-0.2c-0.2-0.1-0.4-0.1-0.6-0.3s-0.4-0.3-0.6-0.4c-0.2-0.2-0.3-0.5-0.3-0.8c0-0.2,0.1-0.5,0.2-0.7
		c0.1-0.2,0.3-0.4,0.4-0.6s0.3-0.4,0.4-0.6c0.1-0.2,0.2-0.4,0.2-0.7c0-0.2,0-0.3,0-0.4l0.1-0.1l-0.1-0.2v-0.8l0.2-0.1v-1.9l0.1-0.1
		l-0.1-0.2l0.1-0.3l-0.1-0.2v-1.9c-0.1,0-0.2,0-0.4-0.1c-0.2,0-0.4-0.1-0.6-0.1c-0.2-0.1-0.4-0.1-0.5-0.2c-0.2-0.1-0.2-0.1-0.2-0.2
		v-1.7l0.9-0.9c0.1,0,0.2,0,0.4-0.1c0.1-0.1,0.2-0.2,0.3-0.3c0.1-0.1,0.2-0.3,0.3-0.4c0.1-0.1,0.2-0.2,0.2-0.3
		c-0.1,0,0.1-0.1,0.4-0.3c0.3-0.2,0.7-0.5,1.3-0.9c0.5-0.4,1.1-0.7,1.7-1.2s1.2-0.8,1.8-1.2s1-0.7,1.4-0.9c0.4-0.2,0.7-0.4,0.7-0.4
		l1-1.1c0.1,0,0.2,0,0.5-0.1c0.2-0.1,0.5-0.2,0.7-0.4c0.3-0.1,0.5-0.3,0.7-0.4c0.2-0.2,0.3-0.3,0.4-0.4h1.4c0.1,0.2,0.3,0.3,0.5,0.4
		c0.2,0.1,0.4,0.2,0.6,0.3l0.9,0.9c0,0.3,0.2,0.6,0.6,0.9c0.4,0.3,0.8,0.6,1.3,0.9c0.5,0.3,1,0.6,1.4,0.9c0.4,0.3,0.7,0.6,0.9,0.8
		h1.2c0,0.1,0.1,0.2,0.2,0.2s0.2,0.1,0.3,0.1s0.2,0.1,0.3,0.1c0.1,0.1,0.1,0.2,0.1,0.3v1c-0.1,0.1-0.2,0.2-0.3,0.3
		c0,0.1-0.1,0.2-0.1,0.4c0,0.1-0.1,0.2-0.1,0.4c0,0.1-0.1,0.2-0.3,0.2v7.3c-0.1,0-0.2,0-0.2,0.1v0.2c0,0.1,0,0.3,0.1,0.4
		s0.2,0.2,0.3,0.3c0.1,0.1,0.2,0.1,0.3,0.2s0.1,0.2,0.1,0.3v1c-0.1,0.1-0.4,0.4-0.7,0.7c-0.4,0.4-0.8,0.8-1.3,1.2
		c-0.5,0.4-1.1,0.8-1.8,1.2c-0.7,0.4-1.3,0.7-2,0.9c-0.5,0.1-1.1,0.4-1.7,0.7c-0.6,0.3-1.2,0.7-1.8,1.1c-0.6,0.4-1.1,0.7-1.7,1
		c-0.5,0.3-1,0.4-1.4,0.4c-0.3,0-0.6-0.1-0.8-0.2c-0.2-0.1-0.5-0.3-0.7-0.4c-0.2-0.1-0.5-0.3-0.7-0.4
		C144.8,44,144.5,43.9,144.2,43.9L144.2,43.9L144.2,43.9z M150.1,39.5h0.3c0.1,0,0.2,0,0.5-0.1c0.2-0.1,0.5-0.2,0.8-0.3
		c0.3-0.1,0.5-0.2,0.7-0.4c0.2-0.1,0.3-0.3,0.3-0.4v-4.8c0.1,0,0.1-0.1,0.1-0.2c0-0.1,0-0.2,0-0.2s0-0.1,0-0.2l0.1-0.1l-0.1-0.3
		v-1.9l-0.2-0.1v-1l-0.1-0.1c-0.2,0-0.3-0.1-0.4-0.2c-0.1-0.1-0.3-0.2-0.4-0.3c-0.1-0.1-0.3-0.2-0.5-0.3s-0.4-0.2-0.6-0.2l-1.3-1.3
		c-0.1,0-0.2,0-0.3-0.1c-0.1-0.1-0.2-0.2-0.4-0.3c-0.1-0.1-0.2-0.2-0.3-0.4c-0.1-0.1-0.1-0.2-0.1-0.2h-0.8c-0.1,0.1-0.3,0.2-0.5,0.3
		c-0.2,0.1-0.4,0.2-0.7,0.4c-0.2,0.1-0.5,0.3-0.7,0.4c-0.2,0.1-0.4,0.3-0.5,0.4v0.2c0,0.2,0,0.4,0.1,0.6c0.1,0.3,0.2,0.4,0.3,0.5
		v2.1l-0.1,0.1l0.1,0.2l-0.1,0.2l0.1,0.2l-0.1,0.2v3.2c-0.1,0-0.1,0-0.2,0c0,0-0.1,0-0.1,0v0.1l0.2,0.1l-0.2,0.3v1.4
		c0.4,0,0.7,0.2,1.1,0.4c0.4,0.2,0.8,0.5,1.2,0.7c0.4,0.3,0.8,0.5,1.2,0.7c0.4,0.2,0.8,0.3,1.1,0.3h0.1
		C149.9,39.4,150,39.5,150.1,39.5z"/>
	<path class="st0" d="M183.3,48.8c0.1,0,0.1,0,0.2,0c0,0,0-0.1,0.1-0.1c0.1-0.2,0.3-0.5,0.5-0.9c0.2-0.4,0.4-0.8,0.6-1.4v-3.5
		l-0.1-0.1v-2.2c0,0-0.1-0.2-0.3-0.5s-0.3-0.7-0.5-1.2c-0.2-0.4-0.4-0.9-0.6-1.4c-0.2-0.5-0.4-0.9-0.5-1.2c-0.1-0.3-0.2-0.5-0.2-0.7
		c0-0.2-0.1-0.3-0.1-0.3c0-0.1,0-0.1,0-0.1c0,0,0-0.1,0-0.2l-0.1-0.1v-1c0.1,0,0.1-0.1,0.1-0.2c0-0.2,0-0.3,0-0.4
		c0-0.1,0-0.1-0.1-0.2c0,0,0-0.1-0.1-0.2c0-0.1,0-0.2,0-0.4c0-0.1,0.1-0.1,0.2-0.1v-5.3l0.1-0.1V25c0,0-0.1-0.1-0.3-0.2
		c-0.2-0.1-0.4-0.3-0.6-0.6c-0.2-0.2-0.5-0.5-0.8-0.7c-0.3-0.3-0.5-0.5-0.8-0.8c-0.2-0.2-0.4-0.5-0.6-0.7c-0.2-0.2-0.3-0.3-0.3-0.4
		H178c0,0-0.2,0.2-0.5,0.4c-0.3,0.3-0.7,0.5-1.2,0.9c-0.4,0.3-0.8,0.6-1.2,0.9c-0.3,0.3-0.5,0.5-0.5,0.6v1.7
		c0.2,0.1,0.4,0.3,0.5,0.6c0.1,0.2,0.3,0.5,0.4,0.7c0.1,0.2,0.3,0.5,0.4,0.7c0.2,0.2,0.3,0.5,0.6,0.6v9.5c0,0-0.1,0.1-0.1,0.2
		c0,0.1,0,0.1-0.1,0.2c0,0.1-0.1,0.2-0.1,0.2c0,0.1-0.1,0.1-0.2,0.1H174c-0.1-0.2-0.3-0.4-0.6-0.5s-0.6-0.4-1-0.6
		c-0.3-0.2-0.6-0.4-0.9-0.6c-0.3-0.2-0.4-0.4-0.4-0.5v-1.8l-0.1-0.1c0,0,0-0.1,0-0.1l0.1-0.2l-0.1-0.2l0.1-0.1v-0.8l-0.1-0.2
		l0.1-0.1v-0.6l-0.1-0.2l0.1-0.1v-1.9l-0.1-0.2L171,30l-0.1-0.5l0.1-0.3c0-0.2,0-0.3-0.1-0.3v-1.8c-0.1-0.1-0.2-0.3-0.3-0.5
		c-0.1-0.2-0.1-0.4-0.2-0.6c0-0.2-0.1-0.4-0.1-0.6c0-0.2,0-0.3,0-0.4c-0.4-0.1-0.8-0.3-1.1-0.6c-0.3-0.3-0.7-0.5-1-0.8
		c-0.4-0.3-0.7-0.5-1.1-0.7c-0.4-0.2-0.8-0.3-1.4-0.3h-0.6c-0.2,0.3-0.6,0.5-1,0.6c-0.4,0.2-0.8,0.3-1,0.5c-0.1,0-0.3,0.1-0.4,0.3
		c-0.1,0.2-0.2,0.3-0.3,0.5c-0.1,0.2-0.2,0.4-0.3,0.6c-0.1,0.2-0.2,0.3-0.3,0.4v2.6c0.1,0,0.2,0,0.3,0c0.1,0,0.2,0.1,0.2,0.1h1.2
		c0,0.1,0.1,0.2,0.3,0.3c0.2,0.2,0.4,0.3,0.5,0.5c0.2,0.2,0.4,0.3,0.5,0.4c0.2,0.1,0.3,0.2,0.3,0.2v3.1l0.1,0.1v2.5
		c-0.1,0.1-0.1,0.2-0.1,0.3c0,0.1,0,0.2,0,0.3v0.5c0.1,0,0.1,0.1,0.1,0.3c0,0.2,0,0.4-0.1,0.5v3.9c0.1,0.1,0.2,0.2,0.3,0.4
		c0.1,0.2,0.2,0.4,0.4,0.5c0.1,0.1,0.4,0.2,0.6,0.4s0.6,0.4,1,0.6c0.4,0.2,0.8,0.5,1.2,0.7s0.8,0.5,1.2,0.7c0.4,0.2,0.7,0.4,1,0.5
		c0.3,0.1,0.5,0.2,0.6,0.2c0.1,0,0.3-0.1,0.6-0.2s0.6-0.3,1-0.5c0.4-0.2,0.8-0.4,1.2-0.6c0.4-0.2,0.8-0.5,1.2-0.7
		c0.4-0.2,0.7-0.4,0.9-0.6s0.4-0.3,0.4-0.4h0.6c0.2,0,0.4,0.1,0.5,0.3s0.2,0.4,0.3,0.6s0.2,0.4,0.3,0.7s0.2,0.4,0.4,0.5v1.3l0.1,0.1
		v3.2l-0.1,0.1v1c-0.1,0-0.2,0.1-0.2,0.2c-0.1,0.1-0.1,0.2-0.1,0.3l-0.9,0.9c-0.1,0-0.2,0-0.4,0.1c-0.2,0-0.4,0.1-0.6,0.2
		c-0.2,0.1-0.4,0.1-0.5,0.2c-0.2,0.1-0.3,0.2-0.3,0.2h-4.2c-0.3-0.3-0.7-0.5-1.1-0.8c-0.4-0.2-0.8-0.5-1.2-0.7s-0.7-0.6-1-0.9
		c-0.3-0.4-0.4-0.8-0.4-1.4c0-0.1,0-0.2,0.1-0.2v-0.6c0-0.8-0.4-1.2-1.1-1.2c-0.3,0-0.6,0.1-0.9,0.3c-0.3,0.2-0.7,0.4-1,0.6
		c-0.3,0.3-0.7,0.5-1,0.8c-0.3,0.3-0.5,0.6-0.7,0.8c-0.1,0.2-0.2,0.5-0.2,0.7c0,0.2-0.1,0.5-0.2,0.6v2.8c0.1,0,0.2,0.1,0.3,0.3
		s0.1,0.3,0.2,0.5s0.1,0.3,0.2,0.5c0,0.2,0.1,0.3,0.1,0.3l0.9,0.9c0.2,0,0.4,0.1,0.5,0.3c0.1,0.2,0.2,0.3,0.4,0.4
		c0,0,0.2,0.1,0.5,0.3c0.3,0.1,0.5,0.3,0.9,0.4s0.6,0.3,0.8,0.4c0.2,0.1,0.4,0.2,0.4,0.2h1.4c0,0.2,0.1,0.2,0.3,0.2
		c0.1,0,0.1,0,0.2,0s0.1,0,0.2,0c0.1,0,0.2,0,0.2,0.1h1.1l0.1-0.2h2.1l0.1-0.1c1-0.6,1.9-1.1,2.9-1.6c0.6-0.3,1.1-0.7,1.7-1
		C177.8,51.7,179.6,48.8,183.3,48.8z"/>
</g>
</svg>
