<?xml version="1.0" encoding="utf-8"?>
<!-- Generator: Adobe Illustrator 15.0.0, SVG Export Plug-In . SVG Version: 6.00 Build 0)  -->
<!DOCTYPE svg PUBLIC "-//W3C//DTD SVG 1.1//EN" "http://www.w3.org/Graphics/SVG/1.1/DTD/svg11.dtd">
<svg version="1.1" id="Layer_1" xmlns="http://www.w3.org/2000/svg" xmlns:xlink="http://www.w3.org/1999/xlink" x="0px" y="0px"
	 width="187px" height="58.5px" viewBox="0 0 187 58.5" enable-background="new 0 0 187 58.5" xml:space="preserve">
<g>
	<path fill="#F7CF9C" d="M4.924,9.712C5.1,9.616,5.27,9.437,5.43,9.172s0.316-0.549,0.469-0.853C6.051,8.015,6.196,7.722,6.331,7.44
		c0.137-0.279,0.277-0.492,0.422-0.637c0.32-0.32,0.629-0.597,0.926-0.829c0.295-0.232,0.6-0.448,0.912-0.649
		s0.637-0.393,0.975-0.577c0.336-0.184,0.697-0.372,1.082-0.565l3.389-0.096c0.129,0.096,0.293,0.156,0.494,0.18
		c0.199,0.025,0.408,0.045,0.625,0.061c0.217,0.017,0.428,0.049,0.637,0.096c0.207,0.049,0.377,0.137,0.504,0.266h2.02
		c0.049-0.08,0.121-0.141,0.217-0.181s0.193-0.075,0.289-0.108c0.096-0.031,0.188-0.068,0.277-0.107
		c0.088-0.041,0.154-0.109,0.203-0.205h1.49c0.064,0.177,0.152,0.328,0.266,0.457c0.111,0.129,0.168,0.272,0.168,0.434
		c0,0.16-0.057,0.316-0.168,0.469c-0.113,0.152-0.201,0.308-0.266,0.469l-1.225,1.321c-0.129,0.528-0.418,0.981-0.867,1.358
		s-0.926,0.689-1.43,0.938c-0.506,0.249-0.967,0.441-1.383,0.577s-0.656,0.229-0.721,0.276H11.92c-0.031,0-0.096-0.004-0.191-0.012
		c-0.098-0.008-0.205-0.023-0.324-0.048c-0.121-0.024-0.23-0.06-0.326-0.108s-0.16-0.104-0.191-0.168h-2.02
		c-0.256,0-0.484,0.088-0.686,0.264c-0.199,0.177-0.389,0.369-0.564,0.577s-0.357,0.401-0.541,0.577
		c-0.186,0.176-0.404,0.265-0.66,0.265c-0.209,0-0.383-0.036-0.518-0.108c-0.137-0.072-0.258-0.156-0.361-0.252
		c-0.104-0.097-0.201-0.193-0.289-0.289s-0.195-0.176-0.324-0.24V9.712z M5.022,46.929c0-2.389,0.496-4.271,1.49-5.65
		c1.025-1.378,2.563-2.5,4.615-3.365l0.047-0.049c0.033-0.031,0.049-0.079,0.049-0.144l4.832-0.097
		c0.064,0.064,0.16,0.097,0.289,0.097c0.209,0,0.328-0.017,0.361-0.048c0.031-0.032,0.111-0.049,0.24-0.049l3.605,0.097l0.145,0.144
		c0.031,0.033,0.064,0.049,0.096,0.049h0.674l0.553-0.096c0.225,0,0.412,0.016,0.564,0.047c0.152,0.033,0.34,0.049,0.566,0.049
		c0.336,0,0.656-0.04,0.961-0.121c0.305-0.079,0.609-0.172,0.914-0.275c0.303-0.104,0.609-0.197,0.912-0.277
		c0.305-0.08,0.609-0.119,0.914-0.119h0.674c0.047,0.144,0.107,0.26,0.18,0.349c0.072,0.087,0.148,0.168,0.229,0.239
		c0.08,0.072,0.148,0.148,0.205,0.229c0.055,0.081,0.084,0.193,0.084,0.337c0,0.305-0.105,0.586-0.313,0.842
		c-0.209,0.257-0.441,0.513-0.697,0.769c-0.258,0.258-0.49,0.529-0.697,0.818c-0.209,0.288-0.313,0.609-0.313,0.961l-1.371,1.322
		c-0.129,0.033-0.285,0.101-0.469,0.205c-0.184,0.104-0.373,0.22-0.564,0.348c-0.193,0.129-0.377,0.27-0.553,0.422
		c-0.178,0.152-0.322,0.291-0.434,0.42h-5.072l-0.096-0.264h-1.49l-0.098-0.24l-6.49-0.097c-0.256,0.192-0.525,0.505-0.807,0.937
		c-0.279,0.434-0.543,0.87-0.793,1.311c-0.248,0.441-0.473,0.834-0.672,1.179c-0.201,0.345-0.35,0.517-0.445,0.517H5.381
		c0-0.16-0.061-0.293-0.18-0.396C5.081,47.22,5.022,47.089,5.022,46.929z M10.551,31.95l0.096-5c-0.064,0-0.156-0.027-0.277-0.084
		c-0.119-0.057-0.213-0.084-0.275-0.084l-0.098-0.097l-2.355,0.097c-0.129,0-0.225-0.125-0.287-0.373
		c-0.064-0.248-0.113-0.501-0.145-0.758V25.7c0-0.096,0.031-0.145,0.096-0.145v-0.145c0-0.191,0.061-0.432,0.18-0.721
		c0.121-0.289,0.281-0.597,0.48-0.926c0.201-0.328,0.426-0.661,0.674-0.998c0.248-0.336,0.504-0.645,0.77-0.926
		c0.264-0.279,0.518-0.512,0.758-0.696s0.447-0.284,0.625-0.301v-3.005c0.256-0.112,0.492-0.381,0.709-0.806
		s0.447-0.897,0.697-1.418c0.248-0.521,0.523-1.038,0.828-1.552c0.305-0.512,0.674-0.913,1.107-1.201l0.6-0.096l0.529-0.553h1.49
		c0,0.096,0.033,0.22,0.098,0.371c0.063,0.153,0.096,0.293,0.096,0.422c0,0.111-0.029,0.268-0.084,0.469
		c-0.057,0.2-0.125,0.404-0.205,0.612s-0.164,0.409-0.252,0.602s-0.174,0.337-0.252,0.433v4.929
		c0.096,0.096,0.143,0.208,0.143,0.336l-0.143,0.36c0,0.08,0,0.186,0,0.313c0,0.129,0.016,0.262,0.047,0.397s0.08,0.261,0.145,0.372
		c0.064,0.113,0.152,0.193,0.266,0.24v1.828l0.143,0.24v2.908c-0.064,0.097-0.172,0.334-0.324,0.71s-0.309,0.785-0.469,1.226
		c-0.16,0.441-0.301,0.846-0.42,1.215c-0.121,0.368-0.182,0.592-0.182,0.673c-0.191,0.032-0.42,0.16-0.684,0.385
		c-0.266,0.224-0.533,0.48-0.807,0.769c-0.271,0.289-0.537,0.577-0.793,0.865c-0.256,0.289-0.457,0.506-0.602,0.649h-1.25
		l-0.672-0.649V31.95z M30.577,32.552c-0.191-0.496-0.305-1.014-0.336-1.551c-0.033-0.537-0.113-1.033-0.24-1.49
		c-0.129-0.457-0.377-0.833-0.746-1.13c-0.369-0.296-0.979-0.444-1.826-0.444h-2.598c-0.08-0.08-0.201-0.121-0.359-0.121
		c-0.064,0-0.178,0.189-0.338,0.565s-0.363,0.841-0.613,1.395c-0.248,0.553-0.541,1.158-0.877,1.814
		c-0.336,0.657-0.717,1.263-1.143,1.815c-0.424,0.553-0.893,1.018-1.406,1.395c-0.512,0.377-1.074,0.564-1.682,0.564h-0.434
		c-0.064-0.176-0.148-0.304-0.252-0.385c-0.105-0.08-0.205-0.164-0.301-0.252s-0.176-0.192-0.24-0.313s-0.096-0.301-0.096-0.541
		c0-0.096,0.031-0.225,0.096-0.385s0.141-0.32,0.229-0.48s0.184-0.309,0.289-0.445c0.104-0.136,0.195-0.22,0.275-0.252l0.096-6.299
		c-0.064,0-0.096-0.072-0.096-0.217c0-0.16,0.031-0.24,0.096-0.24l-0.096-3.678c0.096,0,0.145-0.088,0.145-0.265
		c0-0.128-0.008-0.229-0.023-0.301c-0.018-0.072-0.033-0.132-0.049-0.181c-0.016-0.047-0.033-0.1-0.049-0.156
		c-0.016-0.056-0.023-0.132-0.023-0.229c0-0.24,0.064-0.36,0.193-0.36v-7.718c0.127,0,0.211-0.075,0.252-0.228
		c0.039-0.152,0.068-0.325,0.084-0.517c0.016-0.192,0.043-0.365,0.084-0.518c0.039-0.152,0.133-0.229,0.275-0.229v-1.033
		c0.113,0,0.293-0.16,0.541-0.48c0.25-0.32,0.529-0.722,0.842-1.202c0.313-0.481,0.658-1.001,1.035-1.563
		c0.375-0.561,0.76-1.086,1.154-1.574c0.391-0.488,0.775-0.902,1.152-1.238s0.725-0.513,1.047-0.528l1.563-1.491
		c0.176-0.08,0.328-0.172,0.457-0.276c0.127-0.104,0.256-0.2,0.385-0.288c0.127-0.088,0.268-0.164,0.42-0.229
		s0.324-0.096,0.518-0.096c0.432,0,0.805,0.115,1.117,0.348s0.605,0.506,0.877,0.817c0.273,0.313,0.553,0.625,0.842,0.938
		c0.289,0.313,0.625,0.549,1.01,0.709c1.299,0.529,2.432,1.31,3.402,2.344c0.969,1.034,1.768,2.16,2.393,3.377
		c0.096,0.161,0.18,0.365,0.252,0.614c0.072,0.248,0.141,0.505,0.205,0.769c0.063,0.266,0.135,0.514,0.215,0.746
		s0.17,0.42,0.266,0.564v2.477l-0.145,0.24v1.587c-0.225,0.16-0.404,0.405-0.541,0.733s-0.252,0.682-0.35,1.057
		c-0.096,0.377-0.184,0.746-0.264,1.107c-0.08,0.359-0.168,0.652-0.264,0.877c-0.178,0.4-0.455,0.797-0.83,1.189
		c-0.377,0.394-0.758,0.762-1.143,1.105c-0.385,0.346-0.736,0.658-1.057,0.938c-0.322,0.28-0.514,0.517-0.578,0.71
		c1.043,0.432,1.848,0.881,2.416,1.346s0.99,0.965,1.264,1.502c0.271,0.537,0.432,1.127,0.48,1.768
		c0.047,0.641,0.072,1.354,0.072,2.14v4.712c0.063,0.336,0.127,0.649,0.191,0.938c0.064,0.289,0.164,0.541,0.301,0.758
		c0.137,0.216,0.316,0.385,0.541,0.504c0.225,0.121,0.52,0.181,0.889,0.181h0.434l1.73-0.649c0.32,0,0.568,0.064,0.746,0.193
		c0.176,0.128,0.309,0.292,0.396,0.492c0.088,0.201,0.139,0.426,0.156,0.674c0.016,0.248,0.023,0.5,0.023,0.757
		c0,0.593-0.172,1.162-0.516,1.707c-0.346,0.544-0.779,1.021-1.299,1.431c-0.521,0.408-1.082,0.732-1.684,0.974
		c-0.6,0.239-1.158,0.36-1.67,0.36c-0.818,0-1.645-0.08-2.477-0.24c-0.834-0.16-1.596-0.434-2.283-0.818
		c-0.689-0.385-1.26-0.889-1.707-1.514c-0.449-0.625-0.689-1.402-0.723-2.332v-2.02c0-0.064-0.016-0.141-0.047-0.229
		c-0.033-0.088-0.049-0.164-0.049-0.229V32.552z M25.719,21.613c0.273,0,0.545,0.04,0.818,0.12s0.549,0.172,0.83,0.276
		c0.279,0.104,0.564,0.196,0.854,0.276c0.287,0.08,0.584,0.121,0.889,0.121h0.697c0.225-0.064,0.4-0.169,0.529-0.313
		c0.129-0.144,0.313-0.248,0.553-0.313l1.275-1.298c0.063-0.064,0.104-0.112,0.119-0.145c0.016-0.031,0.039-0.064,0.072-0.096
		l0.096-2.213c0.129-0.096,0.193-0.248,0.193-0.456c0-0.063-0.01-0.128-0.025-0.192s-0.023-0.111-0.023-0.145
		c0-0.031,0.008-0.08,0.023-0.144s0.025-0.128,0.025-0.192c0-0.209-0.064-0.361-0.193-0.457v-1.563
		c-0.129,0-0.191-0.064-0.191-0.192l0.096-0.265c-0.129-0.16-0.297-0.377-0.506-0.648c-0.207-0.273-0.412-0.562-0.611-0.866
		c-0.201-0.305-0.385-0.604-0.553-0.901c-0.17-0.297-0.285-0.541-0.35-0.733l-1.924-1.923c-0.176-0.049-0.369-0.117-0.576-0.205
		c-0.209-0.088-0.414-0.191-0.613-0.313c-0.201-0.12-0.393-0.248-0.578-0.385c-0.184-0.135-0.332-0.276-0.443-0.42h-1.563
		c-0.162,0-0.289,0.096-0.385,0.289c-0.098,0.191-0.182,0.412-0.252,0.66C23.93,9.228,23.86,9.469,23.797,9.7
		c-0.064,0.232-0.137,0.381-0.217,0.445v4.279l0.266,0.265v3.149c0.063,0.064,0.096,0.177,0.096,0.336l-0.096,0.289l0.096,0.697
		c0,0.225-0.018,0.412-0.049,0.564c-0.033,0.152-0.047,0.341-0.047,0.564c0,0.113,0.002,0.266,0.012,0.457
		c0.008,0.192,0.027,0.385,0.061,0.577c0.031,0.192,0.084,0.373,0.154,0.541c0.072,0.169,0.172,0.285,0.301,0.349
		c0.24-0.16,0.457-0.301,0.65-0.42C25.215,21.673,25.448,21.613,25.719,21.613z"/>
	<path fill="#F7CF9C" d="M50.374,43.706c-0.031-0.127-0.111-0.211-0.24-0.252c-0.129-0.039-0.268-0.068-0.42-0.084
		s-0.285-0.048-0.396-0.096c-0.113-0.049-0.17-0.137-0.17-0.265h-2.115c0-0.16-0.057-0.316-0.168-0.469s-0.289-0.229-0.529-0.229
		v-0.985c0.098-0.032,0.152-0.104,0.168-0.217c0.018-0.111,0.041-0.232,0.072-0.361c0.033-0.127,0.084-0.26,0.156-0.396
		c0.072-0.136,0.174-0.22,0.301-0.252v-2.355l0.096-0.145v-1.684l-0.096-0.096v-2.355c0-0.032,0.205-0.181,0.613-0.445
		c0.408-0.264,0.926-0.577,1.551-0.938s1.307-0.762,2.043-1.202c0.738-0.44,1.436-0.841,2.092-1.202
		c0.658-0.36,1.223-0.665,1.695-0.913c0.473-0.249,0.766-0.373,0.877-0.373L56,28.297h1.705c0.273,0,0.449,0.12,0.529,0.36
		s0.121,0.449,0.121,0.625v0.434l-0.096,0.24l0.096,0.264c0,0.033-0.164,0.152-0.494,0.36c-0.328,0.208-0.689,0.444-1.08,0.71
		c-0.395,0.264-0.762,0.504-1.107,0.721c-0.344,0.217-0.533,0.324-0.564,0.324l-0.889,0.891v1.466c-0.064,0-0.113,0.017-0.145,0.048
		c-0.033,0.033-0.064,0.049-0.098,0.049c0,0.128,0.025,0.2,0.072,0.216c0.049,0.017,0.074,0.057,0.074,0.12
		c0,0.24-0.049,0.36-0.146,0.36v0.794l0.146,0.096l-0.146,0.24v1.419c0,0.24,0.137,0.417,0.41,0.528
		c0.271,0.113,0.58,0.209,0.926,0.289c0.344,0.08,0.672,0.152,0.984,0.217c0.313,0.063,0.525,0.184,0.637,0.36h0.77
		c0.064-0.112,0.213-0.208,0.445-0.288s0.473-0.16,0.721-0.241c0.25-0.079,0.469-0.168,0.662-0.265
		c0.191-0.096,0.289-0.217,0.289-0.36v-4.808l0.096-0.097v-5.072L59.823,28.2c-0.098-0.272-0.277-0.529-0.541-0.77
		c-0.266-0.24-0.549-0.46-0.854-0.661c-0.305-0.2-0.641-0.356-1.01-0.468c-0.369-0.113-0.697-0.169-0.986-0.169
		c-0.031-0.208-0.104-0.353-0.217-0.433c-0.111-0.08-0.244-0.152-0.396-0.217c-0.152-0.063-0.301-0.128-0.445-0.192
		c-0.143-0.063-0.264-0.2-0.359-0.408h-1.25c-0.129,0.208-0.313,0.384-0.553,0.528s-0.494,0.293-0.758,0.445
		s-0.521,0.301-0.77,0.445c-0.248,0.144-0.42,0.313-0.516,0.504h-1.227c-0.24-0.256-0.49-0.469-0.746-0.637
		s-0.385-0.477-0.385-0.926c0-0.16,0.041-0.301,0.121-0.421s0.119-0.308,0.119-0.565c0.979-0.816,1.9-1.554,2.766-2.211
		c0.721-0.561,1.398-1.09,2.031-1.587c0.633-0.496,1.021-0.777,1.166-0.841c0.16-0.129,0.373-0.248,0.637-0.361
		c0.264-0.111,0.461-0.248,0.59-0.408h2.115c0.191,0.289,0.633,0.652,1.322,1.094c0.688,0.44,1.402,0.865,2.139,1.273
		c0.738,0.409,1.402,0.762,1.996,1.059s0.904,0.461,0.938,0.492h2.164c0.271,0,0.529,0.165,0.77,0.493
		c0.24,0.329,0.359,0.613,0.359,0.854v0.433c-0.096,0.032-0.176,0.141-0.24,0.325s-0.137,0.38-0.217,0.589s-0.168,0.396-0.264,0.564
		s-0.232,0.252-0.408,0.252h-0.096V28.2l-0.242,0.097v3.005c-0.16,0-0.238,0.08-0.238,0.24c0,0.129,0.023,0.209,0.07,0.24
		c0.049,0.033,0.072,0.097,0.072,0.192c0,0.241-0.047,0.36-0.143,0.36v4.376c0.063,0.032,0.307,0.285,0.732,0.758
		c0.424,0.472,0.9,0.974,1.43,1.503c0.096,0.063,0.209,0.135,0.338,0.215c0.127,0.081,0.223,0.161,0.287,0.241h2.068
		c0.031,0.032,0.148,0.104,0.348,0.216c0.201,0.113,0.301,0.217,0.301,0.313v1.731c0,0.128-0.252,0.364-0.756,0.71
		c-0.506,0.344-1.08,0.688-1.721,1.033s-1.266,0.657-1.875,0.938c-0.609,0.279-1.025,0.421-1.25,0.421
		c-0.176,0-0.412-0.032-0.709-0.097s-0.445-0.185-0.445-0.36h-0.961c-0.08-0.097-0.201-0.216-0.361-0.36s-0.34-0.293-0.541-0.445
		c-0.199-0.152-0.381-0.276-0.541-0.373c-0.16-0.096-0.287-0.144-0.385-0.144l-1.225-1.227h-1.25
		c-0.064,0.097-0.342,0.301-0.83,0.614c-0.488,0.312-1.029,0.641-1.623,0.984c-0.592,0.346-1.17,0.666-1.73,0.963
		c-0.563,0.296-0.971,0.492-1.227,0.588l-0.096,0.097h-0.986c-0.031,0-0.156-0.064-0.373-0.192c-0.215-0.129-0.436-0.269-0.66-0.421
		c-0.225-0.153-0.43-0.3-0.613-0.444s-0.277-0.232-0.277-0.266H50.374z"/>
	<path fill="#F7CF9C" d="M75.69,42.192c0.031,0.032,0.047,0.08,0.047,0.145c0,0.16-0.104,0.24-0.313,0.24H75.28
		c-0.176,0-0.305,0.072-0.385,0.216h-0.336c-0.176,0-0.369-0.015-0.576-0.048c-0.209-0.031-0.313-0.168-0.313-0.408V40.87
		c0.16-0.16,0.24-0.313,0.24-0.457l0.984-1.033c0.033-0.097,0.133-0.256,0.301-0.481c0.168-0.224,0.354-0.448,0.553-0.673
		c0.201-0.225,0.385-0.421,0.553-0.589c0.17-0.168,0.262-0.253,0.277-0.253v-2.813l0.145-0.096l-0.145-0.265v-0.77l0.145-0.097
		v-1.25l-0.145-0.096v-2.597l-0.313-0.36h-1.273c-0.145,0-0.24-0.031-0.289-0.096s-0.08-0.145-0.096-0.241
		c-0.018-0.097-0.037-0.192-0.061-0.288s-0.084-0.176-0.18-0.24v-0.793c0.047-0.033,0.1-0.097,0.156-0.193
		c0.055-0.096,0.115-0.204,0.18-0.324c0.064-0.121,0.119-0.236,0.168-0.349s0.088-0.2,0.121-0.265
		c0.064-0.049,0.211-0.168,0.445-0.36c0.23-0.192,0.504-0.409,0.816-0.649s0.645-0.496,0.998-0.77
		c0.352-0.271,0.676-0.52,0.973-0.745c0.297-0.224,0.553-0.404,0.77-0.541c0.217-0.136,0.34-0.196,0.373-0.18l1.346-1.251
		c0.129,0,0.293-0.092,0.492-0.275c0.201-0.186,0.422-0.394,0.662-0.626c0.24-0.231,0.5-0.448,0.781-0.649
		c0.281-0.199,0.549-0.324,0.805-0.372v-0.769c-0.096-0.049-0.219-0.169-0.371-0.361s-0.316-0.465-0.494-0.817
		c-0.207-0.433-0.436-0.95-0.684-1.551c-0.25-0.601-0.482-1.174-0.699-1.72c-0.215-0.544-0.4-1.009-0.553-1.393
		c-0.152-0.385-0.236-0.578-0.252-0.578v-1.658l-0.24-0.097V9.159c0.064,0,0.141-0.088,0.229-0.264s0.189-0.381,0.301-0.613
		s0.221-0.461,0.324-0.686c0.105-0.225,0.195-0.376,0.277-0.457c0.223-0.127,0.469-0.279,0.732-0.456
		c0.266-0.177,0.541-0.349,0.83-0.517c0.287-0.168,0.576-0.309,0.865-0.422c0.289-0.111,0.561-0.168,0.816-0.168
		c0.193,0,0.357,0.053,0.494,0.156c0.135,0.105,0.252,0.229,0.348,0.373s0.18,0.301,0.252,0.469s0.141,0.324,0.205,0.469
		l0.049,0.049c0.031,0.031,0.08,0.047,0.143,0.047v1.034c0.082,0,0.129,0.028,0.146,0.084c0.016,0.058,0.031,0.12,0.047,0.192
		s0.037,0.137,0.061,0.192c0.023,0.057,0.084,0.085,0.18,0.085v1.033c0.08,0,0.145,0.036,0.193,0.108
		c0.047,0.072,0.096,0.152,0.143,0.24c0.049,0.089,0.102,0.173,0.156,0.253c0.057,0.08,0.125,0.137,0.205,0.168v0.985
		c-0.064-0.063-0.023,0.024,0.121,0.265c0.143,0.24,0.34,0.561,0.588,0.962c0.248,0.4,0.525,0.845,0.83,1.334
		s0.588,0.95,0.854,1.382c0.264,0.434,0.488,0.807,0.674,1.118c0.184,0.313,0.275,0.501,0.275,0.565l1.395,1.37
		c0.08,0,0.244,0.089,0.492,0.265c0.248,0.177,0.518,0.381,0.807,0.613c0.287,0.232,0.564,0.456,0.828,0.673
		c0.266,0.216,0.453,0.372,0.566,0.469c0.111,0.032,0.344,0.097,0.695,0.192c0.354,0.096,0.719,0.204,1.096,0.324
		c0.375,0.121,0.712,0.245,1.009,0.373c0.295,0.129,0.443,0.24,0.443,0.336v1.49c-0.111,0.033-0.236,0.121-0.371,0.266
		c-0.137,0.145-0.273,0.297-0.41,0.457s-0.264,0.309-0.385,0.444c-0.119,0.136-0.22,0.221-0.298,0.252v3.942
		c-0.129,0-0.193,0.049-0.193,0.145c0,0.097,0.016,0.16,0.049,0.193c0.031,0.031,0.047,0.119,0.047,0.264
		c0,0.112-0.004,0.192-0.012,0.24c-0.008,0.049-0.02,0.089-0.035,0.121c-0.018,0.031-0.029,0.063-0.037,0.096
		s-0.012,0.088-0.012,0.168c0,0.16,0.016,0.276,0.049,0.35c0.031,0.071,0.047,0.188,0.047,0.348s-0.031,0.24-0.096,0.24v2.356
		c-0.096,0-0.16,0.017-0.191,0.048l-0.049,0.049l0.049,0.168c0.031,0.031,0.096,0.048,0.191,0.048v1.274
		c0.08,0.032,0.145,0.092,0.193,0.18c0.047,0.089,0.096,0.178,0.142,0.266c0.049,0.088,0.109,0.168,0.182,0.239
		c0.07,0.072,0.18,0.108,0.324,0.108h0.145v1.418c-0.08,0.033-0.148,0.098-0.205,0.193s-0.107,0.203-0.156,0.324
		c-0.049,0.12-0.1,0.236-0.156,0.348c-0.057,0.113-0.117,0.201-0.179,0.266c-0.963,0.625-1.955,1.226-2.982,1.803
		c-1.025,0.577-2.02,1.146-2.98,1.707c-0.416,0.24-0.809,0.51-1.178,0.806s-0.738,0.593-1.105,0.889
		c-0.369,0.297-0.746,0.573-1.131,0.829c-0.385,0.258-0.801,0.466-1.25,0.625l-0.145,0.098h-1.922c0-0.161-0.102-0.317-0.301-0.469
		c-0.201-0.153-0.449-0.306-0.746-0.457c-0.297-0.152-0.625-0.301-0.986-0.445c-0.359-0.145-0.705-0.289-1.033-0.433
		s-0.613-0.284-0.854-0.421c-0.24-0.136-0.4-0.268-0.48-0.396H75.69z M83.43,37.083c0.496,0.201,1.01,0.422,1.539,0.662
		s1.01,0.477,1.441,0.709c0.434,0.232,0.682,0.396,0.746,0.492h1.227l0.096-0.096c0.145-0.064,0.268-0.137,0.373-0.217
		c0.104-0.08,0.195-0.156,0.277-0.229c0.078-0.072,0.162-0.139,0.252-0.203c0.088-0.064,0.203-0.112,0.348-0.145V25.364
		c-0.064,0-0.221-0.068-0.469-0.205s-0.521-0.288-0.816-0.457c-0.297-0.168-0.57-0.332-0.818-0.492s-0.404-0.273-0.469-0.337
		c-0.047-0.032-0.121-0.112-0.217-0.241c-0.096-0.127-0.191-0.264-0.287-0.408c-0.098-0.145-0.193-0.275-0.289-0.396
		c-0.096-0.12-0.176-0.18-0.24-0.18h-1.227c-0.031,0.096-0.18,0.215-0.445,0.36c-0.264,0.144-0.545,0.3-0.842,0.469
		c-0.295,0.168-0.568,0.336-0.816,0.505c-0.248,0.168-0.373,0.333-0.373,0.492v2.115l0.121,0.097v6.9l-0.121,0.097v3.053
		C82.596,36.767,82.934,36.884,83.43,37.083z"/>
	<path fill="#F7CF9C" d="M101.781,40.678c0.08-0.032,0.135-0.076,0.168-0.132c0.031-0.057,0.063-0.121,0.096-0.193
		c0.031-0.072,0.072-0.151,0.121-0.24c0.047-0.088,0.127-0.164,0.24-0.229v-5.697l0.145-0.24l-0.145-0.12v-1.708l0.145-0.096v-0.096
		c0-0.064-0.025-0.107-0.072-0.133c-0.049-0.023-0.072-0.1-0.072-0.229c0-0.063,0.023-0.104,0.072-0.119
		c0.047-0.016,0.072-0.088,0.072-0.217c0-0.063-0.025-0.104-0.072-0.121c-0.049-0.015-0.072-0.087-0.072-0.215
		c0-0.064,0.023-0.108,0.072-0.133c0.047-0.023,0.072-0.1,0.072-0.229l-0.145-0.096v-0.794c0.096,0,0.145-0.112,0.145-0.336
		c0-0.063-0.025-0.12-0.072-0.169c-0.049-0.048-0.072-0.136-0.072-0.264v-0.097c0-0.08,0.047-0.12,0.145-0.12V27.19
		c-0.16-0.096-0.293-0.204-0.396-0.324c-0.105-0.121-0.209-0.24-0.314-0.361c-0.104-0.119-0.211-0.229-0.324-0.324
		c-0.111-0.096-0.256-0.168-0.432-0.216l-0.049-0.048c-0.031-0.033-0.049-0.097-0.049-0.193h-1.225
		c-0.08-0.111-0.178-0.216-0.289-0.313c-0.111-0.096-0.248-0.145-0.408-0.145v-1.225c0.063-0.033,0.127-0.097,0.191-0.193
		c0.064-0.096,0.129-0.204,0.193-0.324c0.063-0.12,0.123-0.236,0.18-0.349s0.1-0.2,0.133-0.265c0.096-0.192,0.328-0.453,0.697-0.781
		s0.777-0.648,1.227-0.961c0.447-0.313,0.889-0.586,1.322-0.818c0.432-0.232,0.76-0.348,0.984-0.348
		c0.096,0,0.268,0.076,0.518,0.228c0.248,0.152,0.533,0.349,0.854,0.589s0.656,0.502,1.01,0.781
		c0.352,0.281,0.676,0.541,0.973,0.781c0.297,0.241,0.541,0.454,0.734,0.638c0.191,0.185,0.289,0.292,0.289,0.324v12.958
		l-0.098,0.097v2.163c0,0.113,0.1,0.245,0.301,0.397s0.434,0.296,0.697,0.433s0.529,0.252,0.793,0.349
		c0.266,0.096,0.453,0.144,0.564,0.144l0.242-0.096h1.129l0.457,0.457v1.658c0.016,0.033-0.072,0.133-0.266,0.301
		c-0.191,0.169-0.439,0.361-0.744,0.577s-0.641,0.449-1.01,0.697c-0.369,0.249-0.717,0.478-1.045,0.685
		c-0.33,0.209-0.613,0.389-0.854,0.541c-0.242,0.152-0.395,0.236-0.457,0.253l-0.145,0.097h-1.25l-1.082-0.385
		c-0.256-0.08-0.502-0.173-0.734-0.277c-0.232-0.104-0.363-0.172-0.396-0.204c-0.08-0.097-0.248-0.256-0.504-0.481
		c-0.258-0.224-0.533-0.447-0.83-0.672s-0.572-0.425-0.83-0.602c-0.256-0.176-0.432-0.265-0.527-0.265V40.678z M99.762,13.8
		c0-0.129-0.021-0.277-0.061-0.445c-0.041-0.168-0.125-0.252-0.252-0.252c-0.064,0-0.113,0.016-0.145,0.048v-1.034
		c0.064-0.031,0.164-0.144,0.301-0.336c0.135-0.192,0.283-0.424,0.445-0.697l0.576-0.986l1.346-1.322
		c0.08-0.031,0.221-0.092,0.422-0.18c0.199-0.088,0.404-0.184,0.613-0.289c0.207-0.104,0.387-0.203,0.541-0.3
		c0.15-0.097,0.227-0.152,0.227-0.168h0.795c0.096,0.24,0.268,0.437,0.516,0.589s0.51,0.297,0.781,0.433
		c0.273,0.136,0.529,0.272,0.77,0.408c0.24,0.137,0.408,0.301,0.506,0.493h1.033c0.031,0.129,0.096,0.213,0.193,0.252
		c0.096,0.041,0.195,0.072,0.299,0.097c0.105,0.024,0.197,0.064,0.277,0.12c0.08,0.057,0.119,0.164,0.119,0.324v1.227h-0.553v0.336
		l0.096,0.457c0,0.16-0.055,0.313-0.168,0.457c-0.111,0.145-0.264,0.217-0.455,0.217h-0.17l-0.865,0.889v0.097
		c0,0.208-0.088,0.369-0.264,0.481c-0.178,0.111-0.377,0.208-0.602,0.287c-0.225,0.082-0.441,0.161-0.648,0.241
		c-0.209,0.081-0.346,0.208-0.408,0.385h-1.252c-0.096-0.177-0.236-0.325-0.42-0.444c-0.186-0.121-0.385-0.244-0.602-0.373
		c-0.215-0.129-0.424-0.269-0.625-0.421s-0.355-0.349-0.469-0.589H99.762z"/>
	<path fill="#F7CF9C" d="M120.811,43.538c-0.33-0.159-0.695-0.348-1.096-0.564s-0.797-0.428-1.189-0.637s-0.717-0.361-0.973-0.457
		l-0.098-0.121h-1.922l-0.096,0.121h-0.795c-0.111-0.145-0.256-0.217-0.432-0.217v-1.467c0-0.224,0.088-0.428,0.264-0.612
		s0.297-0.356,0.361-0.517l1.395-1.227v-3.27l0.096-0.24l-0.096-0.192c0-0.063,0.016-0.12,0.047-0.169
		c0.033-0.048,0.049-0.151,0.049-0.313c0-0.176-0.016-0.271-0.049-0.288c-0.031-0.016-0.047-0.136-0.047-0.36v-0.192
		c0-0.097,0.031-0.144,0.096-0.144v-1.034l-0.096-0.12l0.096-0.24v-2.117c-0.016,0-0.113-0.075-0.289-0.228
		s-0.369-0.325-0.576-0.517c-0.209-0.193-0.406-0.369-0.59-0.529s-0.293-0.256-0.324-0.289h-1.131
		c-0.063,0.129-0.203,0.217-0.42,0.266c-0.217,0.048-0.373,0.072-0.469,0.072c-0.16,0-0.281-0.024-0.361-0.072
		c-0.08-0.049-0.146-0.096-0.203-0.145s-0.117-0.097-0.182-0.145c-0.063-0.048-0.158-0.072-0.287-0.072V25.82
		c0-0.097,0.131-0.269,0.396-0.517c0.264-0.248,0.592-0.529,0.984-0.842c0.395-0.313,0.818-0.633,1.275-0.961
		c0.457-0.329,0.885-0.639,1.287-0.926c0.398-0.289,0.74-0.529,1.021-0.722c0.279-0.192,0.428-0.296,0.443-0.313h0.986
		c0.16,0.225,0.363,0.481,0.613,0.769c0.248,0.289,0.512,0.565,0.793,0.83c0.279,0.265,0.572,0.497,0.877,0.697
		c0.305,0.201,0.594,0.332,0.865,0.396l0.891,0.89c0,0.144,0.08,0.297,0.24,0.457v1.226l-0.096,0.097l0.096,0.24v4.64l-0.096,0.097
		v3.679l-0.24,0.168v0.985c0,0.017,0.096,0.08,0.287,0.192c0.193,0.112,0.438,0.248,0.734,0.408s0.625,0.334,0.984,0.518
		c0.361,0.184,0.713,0.365,1.059,0.541c0.344,0.176,0.66,0.324,0.949,0.444s0.498,0.204,0.625,0.253l0.096,0.096h0.77
		c0.064-0.16,0.209-0.24,0.434-0.24c0.24,0,0.465-0.121,0.674-0.361c0.207-0.24,0.396-0.528,0.564-0.865
		c0.168-0.336,0.313-0.688,0.432-1.057c0.121-0.369,0.213-0.674,0.277-0.914l0.096-0.168v-3.246l-0.096-0.096v-1.227
		c-0.096,0-0.184-0.1-0.266-0.301c-0.08-0.199-0.16-0.42-0.238-0.661c-0.082-0.24-0.162-0.469-0.242-0.685
		c-0.08-0.217-0.176-0.341-0.287-0.373c-0.258-0.16-0.475-0.328-0.65-0.505s-0.348-0.349-0.516-0.517s-0.361-0.332-0.578-0.493
		c-0.215-0.159-0.492-0.296-0.83-0.409l-0.096-0.144h-0.24c-0.111,0-0.252-0.013-0.42-0.036s-0.334-0.068-0.492-0.133
		c-0.162-0.063-0.297-0.145-0.41-0.24c-0.111-0.096-0.168-0.225-0.168-0.385v-1.226c0.305,0,0.457-0.145,0.457-0.433l1.826-1.779
		c0.354-0.176,0.639-0.324,0.854-0.445c0.217-0.119,0.418-0.244,0.602-0.372c0.186-0.128,0.285-0.231,0.301-0.313h1.73
		c0.049,0.112,0.145,0.2,0.289,0.265s0.301,0.12,0.469,0.168c0.168,0.049,0.332,0.088,0.492,0.12s0.273,0.072,0.338,0.12
		c0.336,0.225,0.672,0.561,1.01,1.01c0.336,0.449,0.652,0.895,0.949,1.334c0.297,0.441,0.557,0.834,0.781,1.178
		c0.225,0.346,0.393,0.518,0.506,0.518v0.985l0.191,0.146v1.249l0.24,0.097v1.227l0.096,0.096v2.813
		c-0.129,0.049-0.191,0.145-0.191,0.289c0,0.048,0.008,0.1,0.023,0.156c0.016,0.056,0.023,0.107,0.023,0.156
		c0,0.129-0.063,0.191-0.191,0.191v1.034c-0.096,0.017-0.221,0.148-0.373,0.397c-0.152,0.248-0.328,0.561-0.529,0.938
		c-0.199,0.377-0.416,0.781-0.648,1.213c-0.232,0.434-0.477,0.834-0.734,1.203c-0.256,0.368-0.52,0.677-0.793,0.925
		c-0.271,0.249-0.545,0.373-0.816,0.373h-0.145l-1.924,1.923c-0.016,0-0.305,0.168-0.865,0.505c-0.305,0.177-0.705,0.413-1.201,0.71
		c-0.498,0.296-0.986,0.597-1.467,0.901c-0.48,0.304-0.902,0.573-1.262,0.806c-0.361,0.232-0.549,0.38-0.566,0.444h-0.336
		c-0.113,0-0.273-0.04-0.48-0.12c-0.209-0.08-0.422-0.181-0.637-0.301c-0.217-0.12-0.406-0.248-0.566-0.385
		c-0.16-0.136-0.24-0.268-0.24-0.396v-0.048C121.367,43.779,121.139,43.699,120.811,43.538z"/>
	<path fill="#F7CF9C" d="M144.227,43.876c0-0.097-0.178-0.225-0.529-0.385c-0.354-0.16-0.746-0.333-1.178-0.518
		c-0.434-0.184-0.834-0.368-1.203-0.553s-0.568-0.349-0.602-0.492h-0.984c0-0.064-0.096-0.129-0.289-0.193
		c-0.191-0.064-0.4-0.148-0.625-0.252c-0.225-0.104-0.434-0.253-0.625-0.445c-0.193-0.192-0.289-0.457-0.289-0.793
		c0-0.24,0.064-0.465,0.193-0.674c0.127-0.207,0.264-0.412,0.408-0.612s0.281-0.405,0.408-0.613
		c0.129-0.208,0.193-0.433,0.193-0.673c0-0.16-0.018-0.289-0.049-0.385l0.096-0.096l-0.096-0.193v-0.793l0.24-0.145v-1.875
		l0.096-0.145l-0.096-0.191l0.096-0.265l-0.096-0.192V31.47c-0.096,0-0.244-0.02-0.445-0.061c-0.199-0.039-0.4-0.088-0.6-0.144
		c-0.201-0.056-0.381-0.116-0.541-0.181c-0.16-0.063-0.24-0.127-0.24-0.191V29.21l0.889-0.889c0.129,0,0.244-0.049,0.35-0.145
		c0.104-0.097,0.199-0.209,0.287-0.337c0.09-0.128,0.174-0.253,0.254-0.372c0.08-0.121,0.16-0.213,0.24-0.277
		c-0.064,0.033,0.063-0.064,0.385-0.288c0.32-0.225,0.736-0.513,1.25-0.866c0.512-0.352,1.082-0.74,1.707-1.165
		s1.213-0.821,1.766-1.19s1.035-0.677,1.443-0.926c0.408-0.248,0.652-0.373,0.732-0.373l1.035-1.058c0.08,0,0.232-0.048,0.457-0.144
		c0.223-0.096,0.463-0.217,0.721-0.361c0.256-0.145,0.492-0.291,0.709-0.444c0.217-0.151,0.34-0.276,0.373-0.372h1.441
		c0.129,0.16,0.309,0.3,0.541,0.42c0.232,0.121,0.43,0.213,0.59,0.277l0.889,0.889c0,0.289,0.193,0.586,0.578,0.891
		c0.383,0.304,0.82,0.604,1.309,0.9c0.49,0.297,0.959,0.59,1.408,0.877c0.447,0.289,0.744,0.563,0.889,0.818h1.227
		c0.031,0.112,0.096,0.191,0.191,0.24s0.197,0.088,0.301,0.12s0.197,0.076,0.277,0.132c0.08,0.057,0.119,0.156,0.119,0.301v0.986
		c-0.129,0.063-0.217,0.152-0.264,0.264c-0.049,0.113-0.094,0.232-0.133,0.361c-0.039,0.128-0.084,0.248-0.133,0.36
		c-0.047,0.112-0.137,0.192-0.264,0.24v7.333c-0.129,0-0.193,0.047-0.193,0.145v0.216c0,0.144,0.041,0.265,0.121,0.36
		s0.172,0.18,0.277,0.252c0.104,0.072,0.195,0.145,0.275,0.217s0.121,0.156,0.121,0.252v1.034c-0.113,0.129-0.354,0.373-0.723,0.733
		c-0.367,0.361-0.816,0.75-1.346,1.166c-0.529,0.417-1.121,0.826-1.779,1.227c-0.656,0.4-1.33,0.705-2.02,0.914
		c-0.527,0.127-1.09,0.363-1.682,0.709c-0.594,0.344-1.184,0.697-1.768,1.057c-0.586,0.361-1.143,0.682-1.672,0.962
		c-0.527,0.28-0.984,0.421-1.369,0.421c-0.305,0-0.582-0.061-0.83-0.18c-0.248-0.121-0.484-0.25-0.709-0.385
		c-0.225-0.137-0.457-0.266-0.697-0.385c-0.24-0.121-0.514-0.181-0.816-0.181V43.876z M150.115,39.452h0.313
		c0.08,0,0.244-0.036,0.494-0.109c0.248-0.072,0.512-0.16,0.793-0.264c0.279-0.104,0.529-0.225,0.744-0.361
		c0.217-0.135,0.326-0.268,0.326-0.396v-4.832c0.063,0,0.096-0.08,0.096-0.24c0-0.096-0.018-0.16-0.049-0.192
		s-0.047-0.112-0.047-0.24l0.096-0.097l-0.096-0.264v-1.924l-0.242-0.096V29.45l-0.143-0.144c-0.16-0.048-0.305-0.124-0.434-0.229
		c-0.129-0.104-0.26-0.212-0.396-0.324c-0.137-0.111-0.289-0.22-0.457-0.324c-0.168-0.104-0.365-0.172-0.588-0.205l-1.25-1.273
		c-0.064,0-0.158-0.048-0.277-0.145c-0.121-0.096-0.244-0.208-0.373-0.336c-0.129-0.129-0.24-0.248-0.336-0.361
		c-0.096-0.111-0.145-0.191-0.145-0.24h-0.77c-0.111,0.112-0.273,0.229-0.48,0.349c-0.209,0.12-0.43,0.245-0.662,0.372
		c-0.232,0.129-0.453,0.262-0.66,0.397c-0.209,0.136-0.369,0.284-0.48,0.444v0.217c0,0.16,0.035,0.373,0.107,0.637
		c0.072,0.265,0.156,0.43,0.252,0.493v2.116l-0.096,0.144l0.096,0.192l-0.096,0.24l0.096,0.217l-0.096,0.24v3.246
		c-0.064,0-0.117,0.016-0.156,0.047c-0.039,0.033-0.076,0.049-0.107,0.049v0.145l0.168,0.096l-0.168,0.265v1.419
		c0.367,0.031,0.748,0.16,1.141,0.385c0.395,0.224,0.795,0.469,1.203,0.732c0.408,0.265,0.809,0.505,1.201,0.722
		c0.393,0.216,0.773,0.324,1.143,0.324h0.145C149.924,39.419,149.988,39.452,150.115,39.452z"/>
	<path fill="#F7CF9C" d="M183.291,48.802c0.055,0,0.105,0.007,0.158,0.008c0.025-0.043,0.045-0.078,0.072-0.126
		c0.135-0.241,0.297-0.546,0.48-0.913c0.184-0.369,0.396-0.85,0.637-1.443v-3.51l-0.119-0.096v-2.164
		c-0.018,0-0.102-0.16-0.254-0.48s-0.324-0.705-0.516-1.154c-0.193-0.448-0.395-0.914-0.602-1.395
		c-0.209-0.48-0.377-0.889-0.506-1.227c-0.111-0.287-0.191-0.517-0.24-0.685c-0.047-0.169-0.08-0.276-0.096-0.325
		c0-0.063,0.016-0.104,0.049-0.119c0.031-0.016,0.047-0.097,0.047-0.241l-0.096-0.097v-1.033c0.096,0,0.145-0.063,0.145-0.191
		c0-0.177-0.008-0.301-0.025-0.373c-0.016-0.072-0.035-0.129-0.059-0.169c-0.025-0.04-0.049-0.097-0.072-0.168
		c-0.023-0.072-0.037-0.196-0.037-0.372c0-0.097,0.082-0.145,0.242-0.145V27.07l0.119-0.097v-1.923
		c-0.031,0-0.131-0.071-0.301-0.216c-0.168-0.145-0.371-0.333-0.613-0.565c-0.24-0.231-0.496-0.481-0.77-0.745
		c-0.271-0.265-0.527-0.521-0.768-0.77c-0.242-0.248-0.445-0.469-0.613-0.661c-0.17-0.192-0.27-0.32-0.301-0.385h-1.227
		c-0.016,0.032-0.197,0.177-0.541,0.433c-0.346,0.257-0.729,0.549-1.154,0.878c-0.424,0.329-0.809,0.642-1.152,0.938
		c-0.346,0.296-0.527,0.509-0.543,0.638v1.682c0.193,0.145,0.357,0.33,0.494,0.554c0.137,0.225,0.271,0.457,0.408,0.697
		c0.137,0.241,0.281,0.48,0.434,0.722c0.152,0.24,0.348,0.456,0.588,0.648v9.545c-0.047,0.032-0.084,0.084-0.107,0.156
		c-0.025,0.072-0.049,0.148-0.072,0.228c-0.023,0.081-0.057,0.153-0.096,0.217c-0.041,0.063-0.102,0.097-0.182,0.097h-2.115
		c-0.111-0.177-0.328-0.357-0.648-0.541s-0.641-0.373-0.963-0.565c-0.32-0.192-0.609-0.381-0.865-0.564
		c-0.256-0.185-0.385-0.357-0.385-0.518v-1.755l-0.143-0.145c-0.033-0.031-0.049-0.072-0.049-0.12l0.096-0.192l-0.096-0.24
		l0.096-0.096V33.61l-0.096-0.241l0.096-0.097v-0.6l-0.096-0.193l0.096-0.096V30.46l-0.096-0.24l0.096-0.192l-0.096-0.456
		l0.096-0.337c0-0.161-0.031-0.272-0.096-0.337V27.07c-0.113-0.128-0.201-0.288-0.266-0.481c-0.063-0.191-0.115-0.388-0.156-0.588
		c-0.039-0.201-0.066-0.389-0.084-0.565c-0.016-0.177-0.023-0.304-0.023-0.385c-0.4-0.128-0.773-0.328-1.117-0.601
		c-0.346-0.272-0.693-0.549-1.047-0.83c-0.352-0.279-0.725-0.524-1.117-0.732c-0.393-0.209-0.846-0.313-1.359-0.313h-0.576
		c-0.24,0.272-0.564,0.488-0.973,0.648c-0.41,0.16-0.758,0.328-1.047,0.505c-0.129,0.032-0.252,0.124-0.373,0.276
		c-0.119,0.152-0.236,0.324-0.348,0.518c-0.113,0.191-0.221,0.377-0.324,0.553c-0.105,0.176-0.205,0.313-0.301,0.408v2.621
		c0.063,0,0.156,0.016,0.275,0.048c0.121,0.032,0.182,0.081,0.182,0.145h1.227c0.031,0.063,0.131,0.177,0.299,0.336
		c0.17,0.161,0.35,0.325,0.541,0.493c0.193,0.168,0.373,0.316,0.541,0.445c0.168,0.128,0.27,0.191,0.301,0.191v3.054l0.145,0.097
		v2.476c-0.064,0.064-0.105,0.16-0.121,0.288c-0.016,0.129-0.023,0.225-0.023,0.289v0.457c0.096,0,0.145,0.111,0.145,0.336
		c0,0.209-0.049,0.361-0.145,0.457v3.943c0.145,0.063,0.248,0.191,0.313,0.385c0.064,0.191,0.184,0.352,0.361,0.48
		c0.145,0.096,0.359,0.244,0.648,0.444s0.621,0.417,0.998,0.649c0.375,0.232,0.77,0.469,1.178,0.709s0.793,0.461,1.154,0.661
		c0.359,0.2,0.68,0.364,0.961,0.493c0.281,0.128,0.477,0.191,0.59,0.191c0.096,0,0.291-0.06,0.588-0.18s0.641-0.277,1.035-0.469
		c0.393-0.192,0.801-0.408,1.225-0.648c0.426-0.241,0.818-0.473,1.18-0.698c0.359-0.224,0.656-0.433,0.889-0.625
		s0.35-0.337,0.35-0.433h0.576c0.207,0,0.369,0.088,0.48,0.265s0.213,0.376,0.301,0.601s0.176,0.449,0.264,0.674
		s0.221,0.385,0.396,0.48v1.25l0.145,0.145v3.246l-0.145,0.096v1.033c-0.096,0-0.172,0.057-0.229,0.168
		c-0.055,0.113-0.084,0.201-0.084,0.266l-0.912,0.889c-0.064,0-0.189,0.024-0.373,0.072c-0.184,0.049-0.377,0.108-0.578,0.18
		c-0.199,0.073-0.381,0.148-0.541,0.229c-0.16,0.079-0.256,0.151-0.287,0.216h-4.184c-0.305-0.288-0.67-0.549-1.094-0.781
		c-0.426-0.232-0.83-0.48-1.215-0.745s-0.713-0.577-0.984-0.938c-0.273-0.36-0.41-0.821-0.41-1.383c0-0.128,0.033-0.192,0.098-0.192
		v-0.576c0-0.77-0.377-1.154-1.131-1.154c-0.256,0-0.557,0.088-0.902,0.265c-0.344,0.177-0.689,0.392-1.033,0.649
		c-0.344,0.256-0.664,0.531-0.961,0.829c-0.297,0.296-0.525,0.557-0.686,0.781c-0.111,0.225-0.184,0.46-0.217,0.709
		c-0.031,0.249-0.111,0.452-0.24,0.612v2.813c0.096,0.032,0.18,0.12,0.252,0.265s0.141,0.301,0.205,0.469s0.117,0.332,0.156,0.493
		c0.039,0.159,0.068,0.272,0.084,0.336l0.891,0.89c0.223,0,0.4,0.084,0.527,0.253c0.129,0.168,0.248,0.315,0.361,0.444
		c0.049,0.049,0.205,0.141,0.469,0.276c0.266,0.136,0.549,0.28,0.854,0.433s0.576,0.289,0.816,0.409
		c0.242,0.12,0.361,0.188,0.361,0.204h1.418c0,0.16,0.088,0.24,0.266,0.24c0.064,0,0.119-0.016,0.168-0.048s0.104-0.048,0.168-0.048
		c0.129,0,0.193,0.031,0.193,0.096h1.129l0.096-0.24h2.068l0.096-0.096c0.963-0.562,1.936-1.11,2.922-1.646
		c0.578-0.316,1.133-0.666,1.676-1.033C177.836,51.679,179.633,48.802,183.291,48.802z"/>
</g>
</svg>
